<?xml version="1.0" standalone="no"?>
<!DOCTYPE svg PUBLIC "-//W3C//DTD SVG 1.1//EN" "http://www.w3.org/Graphics/SVG/1.1/DTD/svg11.dtd" >
<svg xmlns="http://www.w3.org/2000/svg">
<metadata></metadata>
<defs>
<font id="photographsregular" horiz-adv-x="667" >
<font-face units-per-em="2048" ascent="1782" descent="-266" />
<missing-glyph horiz-adv-x="487" />
<glyph horiz-adv-x="0" />
<glyph horiz-adv-x="682" />
<glyph unicode=" "  horiz-adv-x="487" />
<glyph unicode="&#x09;" horiz-adv-x="487" />
<glyph unicode="&#xa0;" horiz-adv-x="487" />
<glyph unicode="!" horiz-adv-x="251" d="M12 133q-8 -39 23 -82q33 -47 76 -47t73.5 26.5t40 73t-25.5 91.5q-37 29 -78 25.5t-71 -26t-38 -61.5zM43 453q2 129 4 224t2 173v147.5v149.5t-1 178t-1 231q6 33 26.5 50.5t43 18.5t45 -15.5t35.5 -50.5q-2 -123 -2 -217.5v-176.5t1 -156.5t1 -155.5v-177v-219 q-8 -29 -30 -44.5t-45.5 -16.5t-46 13.5t-32.5 43.5z" />
<glyph unicode="&#x22;" horiz-adv-x="403" d="M25 1558.5v92.5v63q8 39 33.5 55.5t52 13.5t47 -25.5t20.5 -61.5v-4q4 -63 4 -132t-10 -133q-10 -29 -28.5 -44t-39 -16t-40 12.5t-31.5 41.5q-4 10 -6 50t-2 87.5zM213 1558.5v92.5v63q10 39 35.5 55.5t51.5 13.5t46.5 -25.5t20.5 -61.5v-4q4 -63 4 -132t-11 -133 q-23 -57 -68.5 -60t-72.5 54q-4 10 -5 50t-1 87.5z" />
<glyph unicode="#" horiz-adv-x="737" d="M11 508.5q-1 23.5 13.5 46.5t47.5 33h583q35 0 50.5 -23.5t15.5 -51.5t-16.5 -52.5t-47.5 -26.5h-587q-27 8 -42.5 29.5t-16.5 45zM11 774.5q-1 24.5 13.5 47t47.5 32.5h583q35 0 50.5 -23.5t15.5 -52t-16.5 -52.5t-47.5 -26h-587q-27 8 -42.5 29t-16.5 45.5zM162 360v83 v37.5t1 28.5t2 60t2 133t3 244q0 45 23.5 69.5t52 25.5t52.5 -23.5t24 -75.5v-247t-1.5 -130t-1.5 -56t-1 -25.5t-1 -36v-87.5q0 -59 -24.5 -87.5t-53 -27.5t-53 30.5t-24.5 84.5zM430 360v71v33v31.5t1 66.5t1 138t2 246q0 45 23.5 69.5t53.5 25.5t53.5 -23.5t23.5 -75.5 v-250t-1 -137t-1 -64.5t-1 -29.5t-1 -30.5v-70.5q0 -59 -23.5 -87.5t-53.5 -27.5t-53.5 30.5t-23.5 84.5z" />
<glyph unicode="$" horiz-adv-x="673" d="M39 344q8 39 33.5 56.5t53.5 14.5t48.5 -26.5t20.5 -62.5q-4 -51 12 -87t45 -57v723q-70 125 -121 251t-47 247q4 78 53 131t117 76q0 18 2 34.5t2 34.5q0 45 23.5 70t53.5 26t53.5 -24t23.5 -78v-61q41 -14 73.5 -44t53.5 -83q8 -33 -1.5 -58.5t-29 -39t-46 -12.5 t-50.5 22q0 -104 -2 -211t-2 -213q53 -92 106 -184.5t89 -188.5t47.5 -197.5t-19.5 -212.5q-23 -78 -85.5 -122.5t-139.5 -59.5v-92q0 -59 -24 -87t-53.5 -27t-53 30t-23.5 84v96q-59 12 -98 43q-76 53 -97.5 127t-17.5 162zM238 1369q4 -34 14 -69v-4q0 33 1 66t1 68 q-20 -27 -16 -61zM406 170q39 20 64.5 61.5t25.5 102.5q-2 66 -27 136.5t-63 147.5v-448z" />
<glyph unicode="%" horiz-adv-x="1333" d="M37 1085.5q6 81.5 41 151.5t98.5 116t149.5 44q96 0 162.5 -47t100.5 -117t36 -149.5t-31 -149.5t-99.5 -117t-170.5 -47q-106 -2 -171 45t-93.5 118t-22.5 152.5zM184 1077.5q-2 -59.5 33 -107.5t107 -46q78 2 117.5 50t39.5 106.5t-36.5 106.5t-112.5 48 q-72 0 -109 -49t-39 -108.5zM375.5 47q-13.5 33 5.5 76q43 147 80 272t70.5 239t64.5 221.5t63.5 219t67.5 233.5t76 263q8 39 37.5 55t58.5 12t48.5 -26.5t8.5 -59.5q-66 -225 -114.5 -400t-95 -339t-97.5 -339t-121 -400q-23 -53 -55.5 -67.5t-58 -3.5t-39 44zM702.5 552 q6.5 83 41 152.5t98 115.5t149.5 44q96 -2 163 -48t101.5 -115.5t36.5 -150.5t-30.5 -149.5t-100.5 -115.5t-172 -49q-106 0 -170.5 47t-93.5 116.5t-22.5 152.5zM850 544.5q-2 -59.5 32.5 -107.5t106.5 -48q78 2 118 51t40 107.5t-37 106.5t-113 48q-72 0 -108.5 -49 t-38.5 -108.5z" />
<glyph unicode="&#x26;" horiz-adv-x="694" d="M24.5 229.5q4.5 53.5 19.5 109.5t30 120q20 80 44.5 158.5t51.5 156.5q-20 96 -43 195.5t-33 198t-3 195.5t44 189q18 45 64.5 65.5t98.5 17.5t98 -26.5t69 -62.5q33 -59 31 -143t-20.5 -171t-45.5 -167t-43 -133l-53 -166q20 -78 50 -150.5t65 -138.5q12 37 8 74 q8 31 29.5 48t46 19.5t47 -13t32.5 -48.5q6 -47 -13 -109.5t-58 -130.5l71 -120q6 -10 17.5 -37t15.5 -35q18 -25 15 -48.5t-19 -38.5t-44 -20.5t-58 7.5q-8 6 -18.5 21t-19.5 31.5t-16.5 31t-9.5 18.5q-14 27 -29 51q-49 -61 -101 -106t-95 -64q-41 -12 -81 -14t-81 26 q-43 51 -55.5 103.5t-8 106zM188 143q39 29 85 75t87 99q-29 51 -58.5 102.5t-49.5 108.5q-29 -96 -47.5 -190.5t-16.5 -194.5zM242 1335.5q0 -40.5 2 -73.5q4 -47 8 -97.5t12 -103.5q10 33 19.5 65.5t19.5 63.5q10 49 19.5 95t11.5 93q0 6 1 23.5t-1 35t-12.5 32 t-30.5 16.5t-30.5 -19.5t-14.5 -55.5t-4 -74.5z" />
<glyph unicode="'" horiz-adv-x="215" d="M25 1558.5v92.5v63q8 39 33.5 55.5t52 13.5t47 -25.5t20.5 -61.5v-4q4 -63 4 -132t-10 -133q-10 -29 -28.5 -44t-39 -16t-40 12.5t-31.5 41.5q-4 10 -6 50t-2 87.5z" />
<glyph unicode="(" horiz-adv-x="452" d="M15 764q5 248 71 493t193 476q27 49 61.5 56t61 -10.5t33.5 -53t-21 -72.5q-111 -205 -171.5 -424t-68.5 -444.5t38 -450.5t148 -440q27 -31 22 -61t-26.5 -48t-53.5 -18t-58 26q-119 233 -176.5 478t-52.5 493z" />
<glyph unicode=")" horiz-adv-x="446" d="M-0.5 1725.5q8.5 35.5 34 53t61.5 10.5t61 -56q127 -231 192.5 -476t70.5 -493t-52.5 -492.5t-176.5 -478.5q-29 -27 -59.5 -26.5t-52 18.5t-25.5 48t21 61q100 215 147 440t39 450.5t-68.5 444.5t-171.5 424q-29 37 -20.5 72.5z" />
<glyph unicode="*" d="M34 1493q-1 25 13 47.5t45 32.5h168v156q6 27 27.5 42t46 16t47 -13.5t33.5 -47.5v-153h151q35 0 51.5 -23.5t15.5 -51.5t-17.5 -52.5t-47.5 -24.5h-153v-166q0 -35 -23.5 -51t-52.5 -16t-52.5 16.5t-25.5 46.5v170h-170q-27 6 -41 26.5t-15 45.5zM93 1330.5 q-5 25.5 11 55.5l121 117l-108 113q-14 25 -11 49.5t19 41.5t43 22.5t57 -9.5l109 -110l108 108q25 25 52.5 19t47 -26.5t24.5 -49.5t-15 -51l-111 -107l117 -121q25 -25 18.5 -52t-27 -46.5t-49 -25t-50.5 15.5l-117 121l-123 -117q-25 -14 -49.5 -10t-43 20.5t-23.5 42z " />
<glyph unicode="+" d="M34 662.5q-1 23.5 13 46t45 34.5h473q35 0 51.5 -23.5t15.5 -51t-17.5 -52t-47.5 -24.5h-477q-27 6 -41 26.5t-15 44zM260 422v477q6 27 27.5 42t46 16t47 -13t33.5 -47v-473q0 -35 -23.5 -50.5t-52.5 -15.5t-52.5 16.5t-25.5 47.5z" />
<glyph unicode="," horiz-adv-x="276" d="M27.5 143q9.5 39 38 61.5t70.5 25.5t79 -25v-4q33 -37 47 -93.5t8 -113.5t-33.5 -106.5t-76.5 -73.5q-39 -14 -66.5 -1t-38 38.5t0 55.5t44.5 48q12 6 14.5 23.5t2.5 37.5q-37 6 -70 45q-29 43 -19.5 82z" />
<glyph unicode="-" d="M34 662.5q-1 23.5 13 46t45 34.5h473q35 0 51.5 -23.5t15.5 -51t-17.5 -52t-47.5 -24.5h-477q-27 6 -41 26.5t-15 44z" />
<glyph unicode="." horiz-adv-x="276" d="M27.5 133q9.5 39 38 61.5t70.5 26t79 -25.5q35 -45 25.5 -91.5t-41 -73t-75.5 -26.5t-77 47q-29 43 -19.5 82z" />
<glyph unicode="/" horiz-adv-x="634" d="M21.5 47q-13.5 33 5.5 76q43 147 79.5 272t69.5 239t64.5 221.5t64.5 219t68 233.5t76 263q8 39 37.5 55t58 12t48 -26.5t9.5 -59.5q-66 -225 -114 -400t-95 -339t-99 -339t-122 -400q-23 -53 -54.5 -67.5t-57 -3.5t-39 44z" />
<glyph unicode="0" horiz-adv-x="784" d="M37 892q4 126 22.5 245.5t53 223t91 172.5t139.5 92.5t196 -17.5q70 -35 114.5 -108t68 -170t30 -209.5t-1 -226.5t-24.5 -223.5t-40 -197.5q-10 -43 -26.5 -99.5t-41 -114.5t-57.5 -111.5t-76 -90.5t-97 -52t-120 3q-43 12 -75.5 49t-56 83t-39 94.5t-23.5 82.5 q-10 47 -20.5 136.5t-15.5 201t-1 237.5zM180 863q-2 -81 1 -152.5t7 -122.5q2 -25 10.5 -85.5t23 -127t37 -126t52 -84t68.5 1.5t88 128q23 51 40 106.5t32 108.5q12 51 24 125t21.5 159t12.5 175t-3 173t-23.5 153.5t-50.5 115.5q-16 25 -42.5 42t-56.5 23.5t-60.5 -2 t-53.5 -34.5q-35 -41 -58.5 -106.5t-37.5 -142.5t-21.5 -162t-9.5 -166z" />
<glyph unicode="1" horiz-adv-x="251" d="M43 74q4 195 5 373t1 355t-1 359t-1 383q2 37 23.5 59.5t48 25.5t50.5 -16.5t28 -66.5q-4 -371 -1 -732t1 -736q-4 -37 -27 -57.5t-50.5 -21.5t-50 16.5t-26.5 58.5z" />
<glyph unicode="2" horiz-adv-x="655" d="M33 94.5q0 26.5 6 48.5q27 106 82 239.5t118.5 272t121 273.5t86 246.5t18.5 191.5t-84 109q-29 10 -56.5 -3.5t-52 -39t-42 -56t-25.5 -55.5q-12 -35 -37 -50.5t-49.5 -12t-42 27t-13.5 66.5q20 82 73.5 149.5t123.5 100t143.5 20.5t135.5 -86q72 -86 81 -194.5 t-20 -228.5t-86 -247t-118.5 -250.5t-116 -241.5t-78.5 -218q29 2 81 2t107 -1t100.5 -2t61.5 -3q33 -10 48 -34t13 -48.5t-20.5 -45t-52.5 -22.5q-27 0 -84.5 -1t-120 -1h-117.5h-76q-41 -4 -64.5 10.5t-33.5 36t-10 48z" />
<glyph unicode="3" horiz-adv-x="835" d="M16.5 318q10.5 38 38 49.5t62.5 -6t55 -66.5q31 -59 76 -94t96 -44.5t104.5 10t100.5 69.5q51 53 78.5 126.5t33 152.5t-11 158t-55.5 145.5t-98.5 114.5t-139.5 66l-49 -16q-35 -8 -59.5 4t-34.5 34.5t-4 50.5t33 50q31 16 77 49t84.5 76t57 91t-3.5 94q-23 41 -53.5 50 t-62.5 -2.5t-63.5 -34.5t-58.5 -50q-25 -27 -51.5 -25t-45 20.5t-24.5 48t13 60.5q41 57 99 91t118.5 45.5t119 -2t100.5 -50.5t62.5 -98.5t7.5 -145.5q-10 -61 -41.5 -117.5t-78.5 -103.5q78 -35 137 -98.5t96 -140.5q53 -102 71.5 -215t1 -221.5t-71.5 -207t-148 -169.5 q-68 -53 -148 -64.5t-156.5 10t-141 74.5t-101.5 131q-31 63 -20.5 101z" />
<glyph unicode="4" horiz-adv-x="673" d="M27 963v141v135v138.5v150.5q-4 43 19.5 70.5t54 31.5t56 -15.5t25.5 -70.5q2 -51 2 -98v-109.5t1 -147.5t3 -210q70 0 142.5 2t152.5 -2q-4 131 2.5 281.5t6.5 285.5q-2 41 21.5 61.5t52 21.5t54 -17.5t27.5 -57.5v-125v-116.5t1 -113.5t1 -118q4 -238 1 -487.5 t-3 -489.5q0 -49 -24.5 -72.5t-54 -21.5t-54.5 31t-27 84q4 170 6.5 356.5t-1.5 354.5l-293 2q-31 0 -62 2t-55.5 13t-39.5 37t-15 73z" />
<glyph unicode="5" horiz-adv-x="770" d="M27 246q8 33 29.5 52t46 20t46 -14t31.5 -52q23 -49 54.5 -73.5t67.5 -30t72 8t64 42.5q43 43 75 114.5t49.5 156.5t18.5 177t-15.5 176t-53.5 152.5t-96 105.5q-31 23 -69 25t-77 -3t-78.5 -13.5t-72.5 -8.5q-68 12 -80 80v97.5t-1 108.5t-2 104t-1 85q-4 33 4 49.5 t25.5 22.5t43 6h54.5h96h110.5t104.5 -1t78 -3q43 -6 63.5 -31.5t19.5 -53t-23.5 -48t-63.5 -20.5q-18 0 -57 -1t-87.5 -1h-99.5h-96q-2 -55 -1 -108.5t3 -117.5q115 31 202 7.5t150.5 -84t102 -151.5t56 -196.5t13.5 -216t-27.5 -212t-65.5 -184.5t-101 -132 q-68 -55 -153 -70.5t-163 8t-133 81t-63 147.5z" />
<glyph unicode="6" horiz-adv-x="901" d="M18 545q0 96 12.5 184t30.5 150q31 109 75 213t105.5 200.5t141.5 179t182 148.5q39 18 65.5 8t35 -34.5t-3 -56.5t-44.5 -56q-90 -84 -150 -148.5t-105.5 -133.5t-80 -153.5t-73.5 -209.5q166 76 305 59.5t231.5 -99.5t123 -219.5t-20.5 -297.5q-25 -80 -75 -135.5 t-115.5 -88t-140.5 -46t-148 -9.5q-102 4 -171 53t-109 126t-55.5 173.5t-15.5 192.5zM178 469q2 -53 10.5 -106.5t30 -96.5t60 -73.5t102.5 -38.5q104 -14 189 29.5t130 142.5q41 86 37 171t-48 146.5t-125.5 91t-196.5 4.5q-35 -4 -70 -25.5t-62.5 -57t-44 -83 t-12.5 -104.5z" />
<glyph unicode="7" horiz-adv-x="802" d="M31 1563.5q4 25.5 24.5 46t55.5 20.5h454q94 0 138.5 -15.5t53.5 -50t-8.5 -93t-46.5 -146.5q-53 -170 -100 -324.5t-93 -305t-95 -305t-107 -324.5q-10 -37 -37.5 -52.5t-55.5 -12.5t-46 24.5t-12 58.5q57 174 110 339t106.5 332t105.5 343t108 377q-66 0 -122 -1 t-114.5 -1h-121t-136.5 4q-37 10 -51 35.5t-10 51z" />
<glyph unicode="8" horiz-adv-x="739" d="M27 375q6 66 29.5 143.5t55 155.5t70.5 148.5t80 121.5q-68 84 -127 179.5t-100 197.5q-31 80 -5.5 143.5t84 103.5t138.5 55t156.5 -3t138 -71.5t84.5 -147.5q12 -59 1 -117.5t-38 -115t-63.5 -109.5t-73.5 -103q92 -119 158.5 -270t89.5 -305q8 -66 -8.5 -130.5 t-55.5 -117.5t-96.5 -89t-130.5 -42q-84 -8 -158 15.5t-127 73.5t-81 122t-21 162zM186 1366q25 -74 73 -149.5t101 -139.5q14 20 36 57t41.5 78t32.5 82t13 72q0 41 -25.5 66.5t-62.5 38t-79 11.5t-74.5 -15.5t-50 -40t-5.5 -60.5zM186.5 282q20.5 -69 67.5 -100.5 t106.5 -28.5t107.5 37.5t69.5 101.5t-7.5 161t-73.5 196.5t-100.5 175.5q-23 -29 -46 -77t-44.5 -101t-40 -104t-28.5 -86q-31 -106 -10.5 -175z" />
<glyph unicode="9" horiz-adv-x="757" d="M22 1171.5q5 77.5 29.5 153.5t68.5 140.5t105 101.5q31 23 80 38t103.5 21t110.5 1t100.5 -23.5t73 -53t28.5 -88.5q0 -350 6 -691t-2 -687q-2 -45 -26.5 -64.5t-54.5 -17.5t-53.5 24.5t-23.5 65.5q4 225 2 439t-4 448q-51 -84 -129 -126t-156.5 -38t-146 55.5 t-98.5 155.5q-18 68 -13 145.5zM171 1107.5q11 -63.5 48 -108.5q41 -35 83 -35.5t81 20t72.5 55t58.5 71.5t39 69.5t14 51.5v211q-23 18 -56.5 27.5t-70.5 10.5t-72.5 -7.5t-62.5 -24.5q-51 -33 -85 -90.5t-47 -122t-2 -128z" />
<glyph unicode=":" horiz-adv-x="276" d="M27.5 277.5q9.5 37.5 38 60t70.5 25t79 -26.5q35 -45 25.5 -90t-41 -72t-75.5 -25.5t-77 48.5q-29 43 -19.5 80.5zM27.5 712q9.5 38 38 61.5t70.5 25.5t79 -27q35 -45 25.5 -90t-41 -71.5t-75.5 -26.5t-77 47q-29 43 -19.5 81z" />
<glyph unicode=";" horiz-adv-x="276" d="M27.5 143q9.5 39 38 61.5t70.5 25.5t79 -25v-4q33 -37 47 -93.5t8 -113.5t-33.5 -106.5t-76.5 -73.5q-39 -14 -66.5 -1t-38 38.5t0 55.5t44.5 48q12 6 14.5 23.5t2.5 37.5q-37 6 -70 45q-29 43 -19.5 82zM27.5 712q9.5 38 38 61.5t70.5 25.5t79 -27q35 -45 25.5 -90 t-41 -71.5t-75.5 -26.5t-77 47q-29 43 -19.5 81z" />
<glyph unicode="&#x3c;" horiz-adv-x="782" d="M63 745q80 66 150 118t136.5 101.5t134 100t145.5 111.5q31 25 62.5 22.5t50 -22t20.5 -49t-25 -60.5q-68 -55 -132 -104.5t-126.5 -96.5t-127 -94t-134.5 -98q123 -92 251 -187.5t249 -191.5q29 -23 32 -53.5t-12.5 -53t-44 -30.5t-63.5 12h-2q-141 104 -276.5 204.5 t-284.5 203.5q-94 92 -3 167z" />
<glyph unicode="=" d="M34 463.5q-1 23.5 13 46t45 33.5h473q35 0 51.5 -23.5t15.5 -51.5t-17.5 -52.5t-47.5 -26.5h-477q-27 8 -41 29.5t-15 45zM34 662.5q-1 23.5 13 46t45 34.5h473q35 0 51.5 -23.5t15.5 -51t-17.5 -52t-47.5 -24.5h-477q-27 6 -41 26.5t-15 44z" />
<glyph unicode="&#x3e;" horiz-adv-x="774" d="M12 1127.5q2 29.5 20.5 49t50 22t62.5 -22.5q78 -61 145.5 -111.5t134.5 -100t136.5 -101.5t149.5 -118q92 -76 -2 -167q-150 -102 -285 -203t-274 -205h-5q-35 -20 -63.5 -12t-43.5 30.5t-12 53t31 53.5q121 96 249 191.5t251 187.5q-68 51 -132.5 98t-128 94t-128 96.5 t-131.5 104.5q-27 31 -25 60.5z" />
<glyph unicode="?" horiz-adv-x="835" d="M20 1257q2 68 22.5 132.5t57.5 118t89.5 92t117.5 57.5q90 25 184.5 19.5t168 -43.5t116.5 -110.5t31 -185.5q-6 -76 -22.5 -126t-41 -85.5t-55.5 -62.5t-64.5 -55.5t-69.5 -64.5t-71 -89q-23 -31 -27.5 -83t-3.5 -110.5t4 -116t1 -95.5q-12 -29 -33 -43.5t-42.5 -16.5 t-43 11.5t-33.5 41.5q0 55 -2 112.5t0 116t9 117t24 117.5q14 47 47 84t72 69t77.5 61.5t69.5 66.5q23 27 37 69.5t16 88t-13 86t-50 65.5q-63 49 -138 42t-139.5 -48t-105.5 -108.5t-35 -141.5q2 -33 -20.5 -48t-50 -12t-52 22.5t-31.5 55.5zM279.5 133q9.5 39 38 61.5 t70.5 26t79 -25.5q35 -45 25.5 -91.5t-42 -73t-75.5 -26.5t-76 47q-29 43 -19.5 82z" />
<glyph unicode="@" horiz-adv-x="1495" d="M35 623q-18 119 0 246.5t66.5 245.5t125 219.5t176.5 168.5q131 92 271.5 117t266.5 -8t227.5 -118t156.5 -214q33 -78 45 -191.5t0 -232.5t-52 -224.5t-116 -166.5q-35 -29 -79 -43t-87 -12t-80.5 21.5t-64.5 60.5q-29 35 -47 81q-25 -59 -53.5 -106t-61.5 -80 q-57 -53 -109.5 -64.5t-94.5 9t-74.5 65.5t-53 100.5t-29 114t-1.5 109.5q14 127 54 226.5t122 195.5q27 31 74 60.5t99 41.5t100 0t75 -65q14 -25 16 -54q25 -18 31 -48.5t5 -65.5t-8 -70t-11 -61q-2 -16 3 -51t16 -76t26.5 -82t36 -69t45 -36t53.5 17q47 41 75.5 113.5 t38 159.5t-1 179t-41 175t-81 145.5t-121.5 89.5q-127 45 -238.5 30.5t-206 -72.5t-166 -150.5t-115.5 -203t-58.5 -229.5t8.5 -229q27 -135 100.5 -228.5t173.5 -145.5t218 -62.5t231.5 20.5t214 103.5t168.5 187.5q20 37 56 49t64.5 4t40 -35.5t-17.5 -72.5 q-109 -168 -249 -265.5t-287.5 -131t-293 -7t-265.5 106.5t-205 208t-111 300zM517 681q-3 -73 14.5 -129.5t60.5 -72.5q20 -8 42.5 19.5t44 78t39 117t29 137t12.5 139t-9 124.5q-25 0 -47.5 -14.5t-44 -35t-38 -45t-28.5 -43.5q-31 -53 -51.5 -127.5t-23.5 -147.5z" />
<glyph unicode="A" horiz-adv-x="653" d="M20 88q18 369 62.5 738.5t105.5 738.5q6 27 33 43t57 18h8q27 0 51 -12q28 -14 38 -49q33 -188 65.5 -370.5t65.5 -363t63.5 -361.5t59.5 -372v-7q-1 -33 -17 -57q-18 -26 -44 -33q-8 -2 -16 -2q-18 1 -36 11q-27 16 -39 56q-10 70 -20.5 132t-21.5 123.5t-23.5 124 t-24.5 132.5q-18 2 -37 2q-24 0 -49 -3q-45 -5 -94 -34q-14 -117 -21.5 -235t-11.5 -234q-6 -40 -30 -58q-20 -15 -41 -15h-7q-26 3 -48.5 24.5t-27.5 62.5zM225 719q35 8 69 10t68 2q-16 100 -33.5 200.5t-33.5 203.5l-10 59q-4 -29 -6.5 -56.5t-6.5 -56.5z" />
<glyph unicode="B" horiz-adv-x="604" d="M-38 534v7q0 21 8 43q10 24 27 47.5t38 44.5v880q6 33 25.5 50.5t43 18.5t45 -15.5t33.5 -50.5v-11q44 42 92 64q45 21 87 21q4 0 8 -1q47 -2 89 -30.5t72 -90.5q40 -80 44 -168q1 -16 0 -32q0 -73 -16 -147q-20 -91 -61.5 -181t-90.5 -172q68 -18 106 -67 q38 -50 52 -114q10 -42 9 -85q-1 -23 -3 -47q-8 -68 -31 -123q-31 -72 -68 -131.5t-94 -108.5q-47 -43 -98.5 -67.5t-108.5 -34.5q-12 -17 -32 -27q-18 -9 -36 -9h-4q-20 1 -37.5 15.5t-25.5 40.5q-2 12 -4 27.5t-2 55.5t1 115t5 206q-27 0 -55 28q-16 25 -18 49zM180 1076 q0 -79 1 -154.5t1 -139.5q4 2 9.5 4t9.5 5q45 23 84 78t68.5 124.5t50.5 147.5q20 77 25 147q2 23 2 45q0 42 -7 76q-10 51 -40 69q-13 8 -30 9q-22 1 -50 -13q-50 -24 -124 -106v-137v-155zM182 190q53 20 103.5 66.5t84.5 105.5q32 60 44 128q4 21 4 41q0 45 -17 87 q-17 40 -43 48q-13 4 -27 4q-15 0 -32 -4q-27 -29 -55.5 -64t-61.5 -65v-347z" />
<glyph unicode="C" d="M22 784q4 168 23 320q10 82 22.5 156.5t32 138t46 112t67.5 78.5q68 42 124 42h3q57 -1 102 -31.5t79 -83t55.5 -113t31.5 -120.5t10 -105q0 -37 -21.5 -60.5t-48 -30t-50 7t-29.5 50.5q-6 33 -16.5 93t-28.5 115.5t-46 90.5q-18 22 -41 22q-14 0 -30 -8q-29 -16 -49 -92 q-29 -111 -43 -214q-13 -102 -19 -200q-4 -77 -5 -150q0 -20 1 -40q2 -92 5 -184q0 -14 5 -76t15 -132.5t28.5 -132t45.5 -73.5q15 -7 29 -7q24 1 40 21q28 34 46 89t28 115t19 95q4 37 28.5 50.5t51 7t48 -30t21.5 -58.5q-6 -45 -20.5 -105t-38 -119.5t-55 -112 t-74.5 -83.5q-44 -30 -98 -32h-4q-53 0 -115 41q-66 47 -105 163q-38 114 -56 266q-15 126 -15 264q0 28 1 56z" />
<glyph unicode="D" horiz-adv-x="673" d="M37 53q-1 121 -1 238q0 291 4 553q5 366 5 712q-2 20 9.5 46t45.5 26q16 1 32 1q112 0 200 -50q100 -57 166.5 -158.5t100.5 -235.5q34 -133 37 -279v-28q0 -132 -26 -262q-28 -144 -86.5 -268.5t-147.5 -214.5t-208 -127q-18 -6 -42 -6t-43.5 5t-32.5 16.5t-13 31.5z M188 188q86 49 147.5 136.5t97.5 195.5q37 106 49 226q7 65 6 129q0 53 -4 105q-10 114 -45.5 215t-90.5 171q-39 49 -82 79t-78 30q-1 -160 -1 -320t1 -321t1 -322.5t-1 -323.5z" />
<glyph unicode="E" horiz-adv-x="587" d="M18 1550q20 39 70 60q48 20 116 24q27 2 54 1q40 0 80 -3q66 -6 119 -19.5t73 -29.5q25 -25 27 -49.5t-12.5 -41.5t-40 -26.5t-55.5 -3.5q-75 4 -141 12q-24 3 -49 2q-43 0 -87 -8v-320.5t2 -326.5h18q41 -1 77 7q44 10 91 14q23 4 44.5 -3.5t36 -22.5t16.5 -38.5 t-17 -50.5q-46 -41 -120 -55q-54 -10 -107 -9q-20 0 -39 1q4 -135 4 -258t-4 -256q78 2 160 14t151 41q37 8 59 -9q22 -16 30 -42q3 -10 3 -20q-1 -16 -7 -34q-12 -28 -42 -45q-92 -35 -204 -48q-85 -10 -162 -10q-24 0 -47 1q-35 6 -65 27.5t-30 62.5q6 180 7.5 346 t1.5 330t-1 333t-1 353q-17 36 -17 64q0 20 8 36z" />
<glyph unicode="F" horiz-adv-x="575" d="M20 1548q16 39 60 60q42 20 102 26q32 3 66 3q28 0 56 -2q62 -5 117.5 -18t88.5 -32q31 -25 36 -49q1 -7 1 -13q-1 -16 -9 -29q-12 -19 -34.5 -29.5t-44.5 -6.5q-82 16 -154 18q-21 1 -41 1q-48 0 -90 -4v-325t4 -327q18 2 44 5t52.5 6.5t51 6.5t43.5 3q23 2 43 -6.5 t32.5 -23.5t13.5 -37.5t-16 -47.5q-20 -18 -52 -30.5t-67.5 -19.5t-73.5 -10t-71 -3q2 -154 2 -294.5t-2 -289.5q-4 -41 -26.5 -60.5t-50 -19.5t-50 19.5t-26.5 58.5q4 182 5 349t1 332t-1 334t-1 355q-15 37 -15 66q-1 18 6 34z" />
<glyph unicode="G" d="M35 794q4 164 20 314q10 88 24.5 169t33 144.5t43 107.5t57.5 60q71 39 124 39h5q55 -2 95 -32.5t67.5 -83t43 -112t21.5 -118.5t6 -104q0 -37 -21.5 -60.5t-48 -30t-51 7t-28.5 50.5q-8 33 -11 93t-13.5 115.5t-31.5 90.5q-12 22 -34 22q-13 0 -29 -8q-29 -16 -49 -92 q-29 -111 -43 -214t-19 -200q-5 -77 -5 -150q0 -20 1 -40q1 -92 5 -184q0 -10 2 -42t6 -75t11 -92.5t18.5 -92.5t24.5 -73.5t32 -38.5q14 -6 28 -6q19 0 37 14q31 23 55.5 68t42 104t28 116.5t11.5 103.5v9q0 39 -8 58q-25 -4 -47 -8.5t-40.5 -2t-31 11.5t-18.5 32 q-5 19 -5 34q0 18 7 32q12 24 30.5 37t37 18.5t22.5 7.5q25 6 47 8q20 2 42 1t40 -11q33 -23 46.5 -70t16.5 -99q1 -20 1 -39q0 -32 -3 -63q-5 -49 -7 -74q-4 -45 -20.5 -106t-43.5 -121.5t-63.5 -115t-82.5 -84t-100.5 -29.5t-115.5 47q-63 59 -100.5 178t-51.5 267 q-11 116 -11 241q0 35 1 71z" />
<glyph unicode="H" horiz-adv-x="659" d="M35 74q4 195 5 372t1 352t-1 356t-1 382q2 45 24.5 68.5t49 24.5t50 -21.5t25.5 -69.5q-2 -190 -2 -369.5t2 -373.5q27 10 63 20t73.5 16.5t72.5 6.5t64 -11q0 178 -1 346t-1 363q0 41 21.5 66.5t47.5 28.5h6q22 -1 44 -19q24 -22 30 -74q-2 -210 -2 -417q0 -156 1 -311 q2 -217 2 -437q0 -147 -1 -295q-8 -27 -28 -42q-22 -16 -46 -18h-6q-22 0 -40 12q-22 14 -31 44q2 162 3 303t1 295q-29 8 -58 8h-11q-34 -2 -68.5 -10t-68.5 -20.5t-67 -20.5q2 -147 2 -278.5t-2 -272.5q-6 -27 -28 -42q-22 -16 -46 -18h-6q-20 0 -40 12q-22 14 -33 44z " />
<glyph unicode="I" horiz-adv-x="483" d="M-56 1526q-1 4 -1 9q0 19 12 39q14 24 47 38q14 6 53 10t89.5 6t105.5 3q28 0 54 0.5t50 -0.5q49 -1 87 -2t53 -3q37 -10 52 -34q12 -19 12 -41q0 -6 -1 -11q-4 -27 -24.5 -47t-53.5 -20h4q-41 0 -88 -2.5t-90 -4.5q-1 -161 -1 -324t1 -327.5t1 -327.5t-1 -325q41 2 82 3 h7q37 0 73 -9q31 -6 46 -29t16 -48.5t-11 -48t-39 -28.5q-47 -4 -109 -5q-31 0 -63.5 -0.5t-66.5 0.5q-66 1 -127.5 3t-104.5 6q-33 6 -47 29.5t-11 50.5t21.5 48.5t48.5 21.5h136q2 166 3 326q0 80 0.5 161t-0.5 161q-1 161 -2 324.5t-1 335.5h-51.5t-25.5 -1t-20.5 -2 t-38.5 -3q-35 6 -54 25t-22 43z" />
<glyph unicode="J" horiz-adv-x="618" d="M2 360q6 35 27.5 53.5t45 19.5t45 -14.5t32.5 -49.5q2 -39 8 -79t19.5 -68.5t33.5 -43t51 -4.5q35 16 53.5 68.5t26.5 113t10 117.5t6 86q18 231 18 461t-18 457h-108q-41 6 -60.5 30.5t-18.5 52t22.5 49t62.5 21.5h369q39 0 61.5 -20.5t25.5 -45.5v-8q0 -22 -14 -44 q-16 -25 -55 -35h-133q2 -127 7 -241t7 -226q1 -46 1 -91q0 -68 -2 -137q-3 -114 -13 -241q-4 -84 -13.5 -168t-31.5 -166q-18 -63 -58 -111.5t-89 -73.5q-43 -21 -88 -21q-8 0 -15 1q-53 4 -99 42t-78 116t-38 200z" />
<glyph unicode="K" horiz-adv-x="712" d="M43 53q4 193 5 377t1 367.5t-1 370.5t-1 388q6 33 26.5 50.5t42.5 18.5h3l43 -15q22 -16 35 -51q-2 -145 -2 -293v-297q92 150 181 293t193 264q28 21 52 21q5 -1 9 -1q28 -4 43 -26.5t15 -56t-24 -66.5q-55 -74 -102.5 -146.5t-92.5 -143.5t-91 -139.5t-97 -131.5 q47 -80 101 -173.5t106.5 -188.5t98.5 -186t81 -169q11 -25 11 -47q0 -11 -3 -21q-8 -31 -29.5 -44t-50.5 -6t-49 44q-96 166 -181 325.5t-169 313.5v-629q-8 -29 -30 -43q-21 -14 -45 -15h-4q-22 1 -42 13q-22 14 -33 43z" />
<glyph unicode="L" horiz-adv-x="636" d="M43 53q4 193 5 377t1 367.5t-1 371t-1 387.5q6 33 26.5 50.5t42.5 18.5h3l43 -15q22 -16 35 -51q-3 -227 -3 -457q0 -114 1 -230q2 -348 2 -692q86 23 177 28q22 1 43 1q68 0 132 -12q35 -10 49 -35q12 -21 12 -42q0 -4 -1 -8q-3 -26 -21.5 -47.5t-48.5 -27.5h-2 q-104 0 -205 -1t-203 -38q-6 -1 -12 -1q-17 0 -37 9q-26 12 -37 47z" />
<glyph unicode="M" horiz-adv-x="923" d="M43 53q4 193 5 377t1 367.5t-1 370.5t-1 388q12 27 35.5 47.5t51.5 27.5q12 3 25 3q15 0 33 -5q30 -9 58 -38q27 -63 50.5 -150t41.5 -186.5t34.5 -205t30 -208t23.5 -194.5t21 -164q4 61 12 151.5t19.5 194t25.5 213t31.5 211t38 186.5t43.5 142q9 27 41 40q24 10 51 10 q8 0 16 -1q35 -4 62.5 -27.5t29.5 -68.5q20 -213 33.5 -402.5t21 -363.5t8.5 -339v-110q0 -110 -1 -221q0 -47 -21.5 -72.5t-47.5 -29.5q-4 -1 -9 -1q-21 1 -41 17q-24 20 -25 62q-2 293 -10 571.5t-37 558.5q-20 -154 -39.5 -295t-39 -278t-40 -274.5t-45.5 -282.5 q-6 -41 -31.5 -59.5t-54 -17.5t-53 21.5t-27.5 59.5q-18 131 -38.5 276.5l-41 291t-42 287.5t-45.5 271q0 -289 1 -576.5t1 -572.5q-8 -29 -30 -43t-45.5 -15t-46 12.5t-32.5 43.5z" />
<glyph unicode="N" horiz-adv-x="737" d="M43 53q4 193 5 377t1 367.5t-1 370.5t-1 388v11q0 27 15.5 45t37.5 24q10 3 20 3q14 0 28 -5q26 -8 47 -35q49 -94 83.5 -193t65.5 -200q47 -139 90 -279.5t84 -285.5q4 61 6 144t3 174.5t2 183.5q0 46 0.5 89.5t-0.5 84.5q-1 82 -2 144.5t-3 94.5q2 45 30 63.5 t58.5 15.5t55 -24.5t22.5 -54.5q-3 -150 -3 -300v-74q1 -186 1 -371.5t-2 -373t-12 -376.5q-29 -55 -74 -58h-5q-42 0 -73 50q-41 119 -66.5 224.5t-60.5 228.5q-47 162 -95 322.5t-101 320.5l-4 18q0 -281 1 -559t1 -553q-8 -29 -30 -43q-21 -14 -45 -15h-4q-22 1 -42 13 q-22 14 -33 43z" />
<glyph unicode="O" horiz-adv-x="808" d="M32 886q3 124 20.5 241.5t52 221t92 173t141.5 96.5q35 11 77 11q57 0 124 -21q72 -43 116.5 -119t69.5 -172t30 -207q2 -41 2 -82q1 -70 -5 -142q-8 -112 -25.5 -218.5t-40.5 -194.5q-10 -43 -26.5 -99.5t-41 -114.5t-57.5 -111.5t-76 -90.5t-97 -52q-25 -7 -52 -7 q-32 0 -68 10q-43 12 -75.5 49t-56 83t-39 94.5t-23.5 82.5q-10 47 -22 135q-11 90 -17 200q-4 74 -4 153q0 40 1 81zM180 863q-1 -32 -1 -63q0 -46 2 -90q3 -72 7 -122q2 -25 10.5 -85.5t23 -127t36.5 -125.5q22 -60 52 -84q14 -12 31 -13q18 0 38 14q39 26 88 128 q23 51 40 106.5t32 108.5q12 51 24 125t21.5 159t12.5 175q1 30 1 59q0 58 -4 114q-6 83 -23.5 153.5t-50.5 115.5q-16 25 -42.5 42t-56.5 23q-13 3 -26 3q-17 -1 -35 -5q-30 -8 -53 -34q-35 -41 -58.5 -106.5t-37.5 -142.5t-21.5 -162t-9.5 -166z" />
<glyph unicode="P" horiz-adv-x="634" d="M43 53q4 121 4 237v232q1 169 1 338v168q-1 252 -1 528q6 27 21.5 44.5t35.5 22.5q8 2 16 2l22 -4q20 -7 36 -28q37 8 69 8q15 0 31 -2q46 -6 93 -28q53 -29 87 -79t55.5 -109.5t30.5 -123t13 -116.5q6 -80 9 -162q1 -19 1 -38q0 -63 -8 -123q-10 -79 -37.5 -152.5 t-83.5 -135.5q-38 -42 -108 -68q-64 -24 -124 -24h-9v-385q-8 -29 -30 -43q-21 -14 -45 -15h-4q-22 1 -42 13q-22 14 -33 43zM195 1427q0 -207 1 -413.5t1 -417.5q13 -2 26 -2q33 0 59 14q38 20 64.5 57t43 81t22.5 81q8 57 11 151q1 16 1 33q0 77 -12 157q-14 96 -49 173.5 t-103 106.5q-27 0 -44 -2t-21 -19z" />
<glyph unicode="Q" horiz-adv-x="808" d="M32 886q3 124 20.5 241.5t52 221t92 173t141.5 96.5q35 11 77 11q56 0 124 -21q72 -43 116.5 -119t69.5 -172t30 -207q2 -41 2 -82q0 -71 -5 -142q-9 -112 -26 -218.5t-40 -194.5q-10 -45 -27.5 -101.5t-40.5 -111.5q8 -20 17.5 -40.5t23.5 -39.5q16 14 38 16.5t40.5 -7 t31.5 -30t13 -50.5q0 -35 -18.5 -59.5t-45.5 -37.5q-24 -11 -53 -11h-5q-31 1 -58 19q-25 14 -43 36t-35 44q-45 -59 -108 -88q-35 -15 -75 -15q-35 0 -73 11q-43 12 -75.5 49t-56 83t-39 94.5t-23.5 82.5q-10 47 -21.5 135.5t-17.5 199.5q-4 73 -4 153q0 40 1 81zM180 863 q-1 -32 -1 -63q0 -47 2 -90q3 -71 7 -122q2 -25 9.5 -83.5t21.5 -124t34.5 -123.5t49.5 -86q17 -17 38 -17q13 0 28 8q37 18 84 108q-23 41 -33 71q-4 9 -4 19q0 24 18 54q20 20 43 24t41 0l21 72q12 51 24 125t21.5 159t12.5 175q1 30 1 59q0 59 -4 114q-6 83 -23.5 153.5 t-50.5 115.5q-16 25 -42.5 42t-56.5 23q-13 3 -26 3q-17 0 -35 -5q-30 -8 -53 -34q-35 -41 -58.5 -106.5t-37.5 -142.5t-21.5 -162t-9.5 -166z" />
<glyph unicode="R" horiz-adv-x="763" d="M43 53q4 217 5 414t1 381t-1 360t-1 348q10 46 42 62q16 8 32 8t31 -8q61 37 139 42q16 1 32 1q61 1 117 -15q72 -20 123 -64t60 -107q5 -36 5 -70q0 -65 -18 -125q-26 -90 -78.5 -170t-123 -151.5t-140.5 -139.5q88 -109 148.5 -204t132.5 -201q49 -74 94 -153t88 -157 q5 -16 5 -31t-5 -29q-11 -26 -31 -38q-16 -10 -37 -10q-5 0 -11 1q-28 3 -52 28q-96 162 -191.5 314.5t-211.5 313.5v-598q-8 -29 -30 -43q-21 -14 -45 -15h-4q-22 1 -42 13q-22 14 -33 43zM195 971q96 84 170.5 173t103.5 193q9 33 9 58q0 39 -21 63q-35 39 -89 45 q-13 1 -27 1q-41 0 -80 -14q-52 -19 -66 -52v-467z" />
<glyph unicode="S" horiz-adv-x="673" d="M39 344q8 39 33.5 56.5t53.5 14.5t48.5 -26.5t20.5 -62.5q0 -5 -1 -10q0 -52 20 -88q22 -40 56 -57q32 -16 68 -16h4q39 1 74 22.5t57.5 60t22.5 96.5q-2 74 -34 157.5t-78 174t-100.5 183.5t-100.5 187q-47 94 -75 186q-25 81 -24 159v22q2 57 30.5 101t72.5 73 q45 29 97 40q29 6 56 6q23 0 46 -4q50 -9 91.5 -42t61.5 -92q10 -35 -0.5 -60.5t-32 -38t-49 -9.5t-54.5 28q-15 33 -45 53q-14 10 -31 10q-19 0 -42 -12q-45 -27 -45 -70t12 -86q27 -90 74 -178t99 -176t102.5 -178t84.5 -183t42 -191q2 -21 1 -43q0 -78 -24 -161 q-20 -72 -77 -116q-56 -42 -128 -60q-44 -11 -89 -11q-29 0 -57 4q-74 11 -126 48q-76 53 -98 127q-18 62 -18 135q0 13 1 27z" />
<glyph unicode="T" horiz-adv-x="419" d="M-101 1526q-1 4 -1 9q0 19 12 39q14 24 47 38q14 6 53 10t89.5 6t105.5 3q28 0 53.5 0.5t50.5 -0.5q49 -1 87 -2t53 -3q37 -10 52 -34q13 -20 13 -42q0 -4 -1 -8q-3 -26 -22.5 -46.5t-52.5 -22.5q-39 0 -87 -2.5t-91 -4.5v-270v-305t1 -370t1 -466q-8 -29 -28 -43 q-22 -14 -46 -15h-3q-23 1 -43 13q-22 14 -33 43q6 365 6 713v698h-52.5t-26.5 -1t-22.5 -2t-38.5 -3q-35 6 -54 25t-22 43z" />
<glyph unicode="U" horiz-adv-x="679" d="M20 1038v152q0 8 2.5 60.5t5.5 117t8 122t9 73.5q-2 27 21.5 46t53.5 23q6 1 11 1q25 0 45 -14q26 -17 29 -65l-15 -204q-12 -186 -12 -374v-54q2 -215 29 -428q2 -14 8 -62.5t17.5 -104t31 -101.5t47.5 -56q14 -6 41 17.5t52.5 60.5t47 78t25.5 69q15 117 19 263 q2 93 3 191q0 55 -1 111q-2 156 -4 308v51q0 124 8 229q0 4 1 5t1 3q2 37 21.5 55.5t44 18.5t47 -16.5t30.5 -50.5q4 -112 4 -231q0 -58 -1 -120q-3 -184 -9 -371.5t-9 -371.5q-1 -42 -1 -84q0 -139 8 -268q0 -55 -22.5 -85t-50 -30t-52.5 34t-27 109q-29 -51 -67.5 -88 t-82.5 -49q-18 -5 -36 -5q-26 1 -53 11q-45 18 -86 74q-39 55 -64.5 141t-41 188.5t-23.5 213t-10.5 214t-2.5 193.5z" />
<glyph unicode="V" horiz-adv-x="610" d="M25 1552q5 40 27 58q21 18 46 17h2q26 -1 51 -21.5t31 -61.5q8 -113 21.5 -253t28 -285.5t28.5 -288t29 -260.5q33 266 61.5 547.5t63.5 541.5q8 39 33.5 59.5t53 20.5t48 -20.5t20.5 -61.5q-27 -182 -50 -370.5t-46.5 -377t-50.5 -373.5t-62 -362q-2 -18 -19 -35.5 t-42 -23.5q-8 -2 -17 -2q-18 0 -34 8q-26 12 -39 53q-27 186 -53.5 369.5t-51 368t-45 371.5t-34.5 382z" />
<glyph unicode="W" horiz-adv-x="1044" d="M18 1538q4 43 23.5 65.5t43.5 25.5t48.5 -14.5t36.5 -51.5q23 -201 40 -349.5t31.5 -256t26 -183.5t19.5 -128t15 -90t15 -73q31 137 64 277.5t68 290.5q8 31 29.5 46t46 15t45 -15.5t30.5 -47.5q6 -82 16.5 -156t21.5 -144.5t22.5 -143.5t23.5 -152q29 143 51.5 280 t44 275.5t44 281t50.5 295.5q6 27 32 38q20 9 43 9q7 0 13 -1q30 -3 52 -23q21 -18 20 -47v-5q-23 -188 -50.5 -371.5t-60 -364.5t-70.5 -364.5t-77 -371.5q-10 -39 -28.5 -57.5t-40 -22.5t-43 5t-37.5 26q-12 20 -24.5 61t-27 107.5t-31 162t-38.5 226.5 q-18 -80 -29.5 -142.5t-22 -123t-20.5 -124t-26 -145.5q-10 -29 -30 -44t-42.5 -15t-45 14.5t-36.5 44.5q-10 16 -31.5 97.5t-49.5 203t-55.5 273t-51.5 310.5q-22 159 -36 313q-12 135 -12 250v34z" />
<glyph unicode="X" horiz-adv-x="720" d="M45 117q27 94 54.5 176t55 159.5t52 152.5t47.5 153q-27 90 -54.5 190.5t-53 202.5t-47 202.5t-38.5 190.5q-4 35 10.5 58.5t38.5 31.5q11 4 22 4q14 0 28 -5q26 -9 47 -36q20 -72 37.5 -148.5t33 -156.5t31 -157.5t31.5 -147.5q18 82 38.5 169t42 169t41.5 150.5 t32 113.5q10 31 38.5 38t58.5 -2t48 -30.5t6 -50.5q-4 -20 -18.5 -76.5t-35 -131t-45 -160.5t-47 -165t-41 -143.5t-26.5 -95.5q27 -78 58.5 -164t64.5 -173t63.5 -171t55.5 -160q6 -19 6 -34q0 -18 -8 -32q-16 -24 -44 -32q-12 -4 -25 -4l-31 6q-28 10 -35 43 q-27 66 -49.5 128.5l-45 125t-47 129t-53.5 139.5q-47 -125 -86 -263t-92 -271q-8 -25 -32 -32q-10 -3 -20 -3q-13 0 -26 5q-23 9 -37 36q-8 16 -8 38q0 15 4 34z" />
<glyph unicode="Y" horiz-adv-x="716" d="M2 1563q6 33 27.5 52t46.5 20h3q22 0 43 -14q23 -15 34 -50q10 -115 34.5 -228.5t67.5 -224.5q33 66 61.5 126.5t62.5 119.5t74 117.5t95 117.5q31 27 59.5 31t49 -8t27.5 -38q3 -9 3 -19q0 -18 -8 -39q-76 -106 -151.5 -234.5t-135.5 -251.5q-8 -16 -21.5 -49 t-25.5 -69.5t-21.5 -70.5t-9.5 -48q0 -139 2.5 -243.5t4.5 -189.5q1 -57 1 -108v-50q-1 -73 -8 -146q-8 -33 -28.5 -49.5t-44.5 -17.5h-2q-22 0 -42 15q-20 17 -30 52q0 205 1 408v137q0 137 -1 276q-31 57 -59.5 150t-51 191.5t-39 190t-18.5 144.5z" />
<glyph unicode="Z" horiz-adv-x="567" d="M17 125q0 59 26 151q20 76 51 173.5t67 206t72.5 222t69.5 222t57.5 205t34.5 170.5q-51 5 -99 5q-24 0 -48 -1q-70 -4 -148 -4q-35 4 -53 23.5t-21 44t11 48t47 35.5q90 2 166 7q48 3 88 3q24 0 45 -1q57 -3 97 -18t58 -54q16 -34 16 -89v-19q-3 -69 -30 -175 q-35 -154 -76.5 -297t-86 -278.5t-86.5 -265.5t-74 -259q29 -8 70.5 -8t84.5 2t80 3t56 -5q45 -12 58 -39q8 -16 8 -32q0 -11 -4 -23q-9 -28 -35.5 -49t-59.5 -21q-126 -11 -212 -11q-25 0 -45 1q-96 4 -140 34q-45 30 -45 93z" />
<glyph unicode="[" horiz-adv-x="393" d="M30 342q-1 219 1 447.5t4 454.5t0 427q-6 49 23.5 71.5t73.5 31t91 7.5t76 -1q39 0 62.5 -20.5t26.5 -46t-14.5 -51.5t-56.5 -36h-60.5t-59.5 2q0 -184 -1 -400t-3.5 -435.5t-2.5 -427t5 -373.5v6q49 4 76.5 0t41.5 -6q41 -4 61.5 -27.5t19.5 -50.5t-22.5 -49.5 t-64.5 -24.5q-39 0 -82 -4t-82 1t-67.5 26.5t-36.5 73.5q-8 186 -9 405z" />
<glyph unicode="\" horiz-adv-x="634" d="M27 1552q-10 37 9 59.5t48 26.5t57.5 -12t38.5 -55q41 -141 76 -263t67.5 -233.5t64.5 -219t64.5 -221.5t69.5 -239t80 -272q16 -43 4 -76t-38.5 -44t-58.5 3t-52 68q-70 225 -122 400t-99.5 339t-96.5 339z" />
<glyph unicode="]" horiz-adv-x="407" d="M-1 -86q-1 27 19.5 50.5t61.5 27.5l42 6t77 0v-6q2 166 3 373.5t-1 427t-3 435.5t-1 400q-23 -2 -62 -2h-61q-41 10 -57.5 36t-12.5 51.5t26.5 46t61.5 20.5q29 0 77 1t92 -7.5t75 -31t24 -71.5q-4 -201 -2 -427t3 -454.5t0 -447.5t-9 -405q-6 -51 -34.5 -73t-67.5 -27 t-83 -1t-83 4q-43 2 -63.5 24.5t-21.5 49.5z" />
<glyph unicode="^" horiz-adv-x="1081" d="M15.5 1250.5q-9.5 29.5 11.5 64.5v4q106 139 205.5 275.5t199.5 287.5q90 98 168 0q66 -78 119 -145.5t102 -134t99.5 -134t111.5 -143.5q25 -31 24 -62.5t-19.5 -50t-49.5 -20.5t-61 25q-53 68 -103.5 131t-99.5 125.5t-98.5 127t-100.5 134.5q-90 -127 -182 -255 t-186 -251q-25 -31 -55.5 -34t-53 11.5t-32 44z" />
<glyph unicode="_" horiz-adv-x="1105" d="M34 -93.5q-1 23.5 13 46t45 34.5h918q35 0 51 -23.5t16 -51t-16.5 -52t-46.5 -24.5h-924q-27 6 -41 26.5t-15 44z" />
<glyph unicode="`" horiz-adv-x="329" d="M35 1583.5q12 28.5 37.5 40.5t55 4t52.5 -45q29 -49 56.5 -108.5t50.5 -108.5q14 -31 3 -59.5t-35 -43t-53.5 -8t-49.5 44.5q-20 37 -35 63t-26 48.5t-23.5 46t-28.5 60.5t-4 65.5z" />
<glyph unicode="a" horiz-adv-x="403" d="M20 61q10 268 37 534.5t62 530.5q4 18 19 30q16 14 34 16h7q15 0 29 -8q18 -10 23 -38q37 -270 76 -525t74 -529v-9q-1 -23 -9 -39q-10 -18 -25 -23q-5 -2 -10 -2q-9 0 -21 7q-16 10 -25 41q-10 102 -23.5 186t-27.5 183q-23 4 -51.5 0.5t-59.5 -23.5q-8 -86 -11 -171 t-3 -169q-7 -29 -21 -42q-13 -11 -25 -11h-5q-16 2 -28.5 17.5t-15.5 43.5zM143 520q20 4 40 6t42 2q-12 72 -22 144.5t-21 146.5l-4 43q-4 -20 -5 -40.5t-3 -39.5z" />
<glyph unicode="b" horiz-adv-x="446" d="M28 414q16 37 42 65v633q8 45 42 48h4q32 0 48 -48v-6q30 29 60 45q27 14 54 15l6 -1q30 -2 57.5 -22.5t45.5 -63.5q27 -57 30 -121q1 -12 1 -24q0 -54 -12 -106q-14 -64 -40 -128.5t-59 -121.5q43 -14 69 -49q24 -35 34 -81q7 -32 7 -65q0 -14 -1 -29q-4 -49 -21 -92 q-20 -49 -43.5 -91t-60.5 -79q-31 -31 -63.5 -47t-71.5 -27q-8 -14 -20 -20q-11 -5 -22 -5h-4q-12 1 -23 11t-17 31q-2 10 -4.5 21.5t-2.5 39t1.5 79.5t5.5 147q-20 4 -35 22q-14 20 -14 41q1 14 7 29zM162 766q0 -57 1 -111.5t1 -99.5q4 4 7 4t7 4q37 20 69 81t51 132 q20 72 26 142q2 21 1 38q-1 43 -11 70q-14 35 -44 35q-4 0 -8 -1q-37 -5 -100 -83v-99.5v-111.5zM164 133q33 14 65.5 46t55 75t29.5 91q2 15 2 29q0 33 -11 64q-11 29 -29 34q-10 3 -20 3q-8 0 -16 -2q-16 -20 -35 -46t-41 -48v-246z" />
<glyph unicode="c" horiz-adv-x="425" d="M18 574q2 122 17 233q10 123 32.5 215t73.5 139q45 32 81 32q18 1 34 -7q49 -22 82 -78.5t48 -127.5t15 -120q0 -25 -14 -42t-30.5 -22t-33 4t-18.5 36q-6 25 -12 68.5t-18.5 84.5t-30 66.5t-43.5 11.5q-18 -18 -31 -68q-35 -166 -40 -303q-3 -76 -3 -152q0 -60 2 -120 q0 -10 3 -55t10.5 -96.5t18.5 -95.5t29 -54q27 -16 44.5 8.5t29.5 65.5t18.5 85t12.5 68q2 27 17.5 36t32.5 5t30.5 -21.5t13.5 -43.5q-4 -33 -12 -76t-23.5 -86t-36 -82t-48 -61.5t-62.5 -23.5h-2q-34 0 -76 30q-41 33 -65 117q-24 85 -36 196q-9 91 -10 190v44z" />
<glyph unicode="d" horiz-adv-x="446" d="M29 35q-1 103 -1 201q0 197 3 375q4 267 4 519q-2 14 5 35t32 21q11 1 21 1q73 0 129 -38q64 -43 107.5 -117t66 -171t23.5 -203v-11q1 -101 -17 -201q-18 -106 -56.5 -196t-97 -156.5t-133.5 -93.5q-12 -3 -26 -3q-13 0 -29 3q-30 6 -31 35zM127 135q55 35 95 98.5 t64 142.5t32 166q5 46 4 92q0 40 -4 79q-8 84 -29 157.5t-58 124.5q-27 35 -54 55.5t-50 20.5q0 -233 1 -467v-155q0 -157 -1 -314z" />
<glyph unicode="e" horiz-adv-x="419" d="M32 1117q13 28 45 42.5t75 17.5q15 1 30 1q28 0 55 -4q42 -6 76.5 -14.5t46.5 -20.5q18 -24 18 -43q0 -14 -10 -25q-17 -20 -43 -20q-9 0 -18 2q-47 2 -89 7q-14 2 -29 2q-29 0 -60 -7v-228.5t4 -234.5q31 0 60.5 6t58.5 6q30 10 50 -14q11 -13 11 -32q0 -15 -8 -34 q-29 -29 -77 -39q-34 -7 -68 -7q-14 0 -27 1q2 -98 2 -185t-2 -185q49 2 101.5 11t99.5 30l-2 -5q23 2 37 -9q14 -12 18 -28q2 -7 2 -13q0 -9 -4 -21q-6 -18 -25 -31q-58 -27 -130 -37q-51 -7 -100 -7q-19 0 -38 1q-23 4 -37 21.5t-20 39.5q2 129 3 249t1 239t-1 240.5 t-1 254.5q-10 26 -10 47q0 14 5 26z" />
<glyph unicode="f" horiz-adv-x="401" d="M34 1114q11 29 39.5 44.5t68.5 19.5q23 2 46 2q17 0 35 -1q41 -3 78 -13.5t59 -22.5q23 -18 26 -35q1 -6 1 -11q0 -11 -5 -21q-7 -13 -22.5 -21t-29.5 -4q-57 12 -104 13h-19q-37 0 -70 -3v-230.5t4 -236.5q23 2 63 8t64 6q29 2 50.5 -21.5t-1.5 -58.5q-14 -14 -35.5 -22 t-46 -13.5t-49 -7.5t-45.5 -2v-420q-4 -29 -20.5 -43t-34.5 -14t-33.5 13.5t-17.5 41.5q4 129 5 249t1 238t-1 239.5t-1 254.5q-9 25 -9 46q0 14 4 26z" />
<glyph unicode="g" horiz-adv-x="475" d="M34 572q3 120 13 229q8 63 18.5 121.5t22.5 104.5t28.5 78t39.5 44q51 30 89 30q19 0 35 -7q48 -23 75.5 -78.5t36.5 -125t9 -120.5q0 -25 -15 -41t-33.5 -20.5t-35 5t-18.5 35.5q-4 25 -7 69t-9.5 84t-20.5 64.5t-43 8.5q-16 -6 -33 -64q-39 -164 -43 -302 q-2 -69 -2 -137t2 -134q0 -10 3.5 -55.5t11.5 -96.5t20 -95t31 -52q25 -12 45 5t36.5 50t28 77t17.5 85t8 74.5t-4 48.5q-33 -8 -58.5 -10.5t-35.5 32.5q-6 29 3 46.5t21.5 27.5t24.5 14t12 6q16 4 33 7q33 4 57 -11q23 -16 32 -49t11 -72q1 -15 1 -30q0 -22 -2 -43 q-3 -35 -5 -53q-4 -33 -14 -78t-28.5 -89t-43 -82t-56.5 -60.5t-69 -22.5t-80 35q-43 43 -67.5 128t-34.5 193q-8 82 -8 172q0 27 1 54z" />
<glyph unicode="h" horiz-adv-x="456" d="M20 47q4 141 5.5 269t1.5 256t-1 259.5t-1 276.5q0 33 16 50.5t34.5 18.5t35 -15.5t18.5 -53.5q-2 -135 -2 -266t2 -273q37 15 92 27q23 5 43 5q28 0 51 -9v516q0 31 14.5 49.5t32.5 20.5h3q17 0 31 -14q16 -16 20 -56q-1 -106 -1 -212q0 -160 2 -316q1 -112 1 -226 q0 -152 -2 -307q-6 -20 -19.5 -30.5t-30 -10.5t-32 9.5t-23.5 31.5q4 117 4 219.5v212.5q-24 8 -47.5 8t-47.5 -8q-48 -16 -91 -30v-402q-6 -20 -20.5 -30.5t-31 -10.5t-32.5 9.5t-25 31.5z" />
<glyph unicode="i" horiz-adv-x="452" d="M18 1104v7q0 15 8 29q10 18 31 27q14 6 62.5 10.5t104 4.5t103.5 -1t62 -3q25 -6 36 -24q9 -16 9 -32v-6q-2 -18 -16.5 -33.5t-36.5 -15.5q-25 0 -56.5 -2t-62.5 -2q-1 -116 -1 -234.5t1 -238.5q2 -240 2 -473h56.5t54.5 -2q20 -6 30.5 -23.5t11.5 -36t-8.5 -35 t-27.5 -20.5q-31 -4 -75 -5t-88 -1t-86 2t-71 4q-23 4 -32 22.5t-7.5 38t13.5 36t35 18.5q4 0 16 -1t26.5 -1h29t20.5 2q3 160 3 314q0 77 -1 153q-2 227 -2 479h-35t-17.5 -1t-14.5 -2t-25 -3q-23 4 -36.5 17.5t-15.5 31.5z" />
<glyph unicode="j" horiz-adv-x="522" d="M27 260q4 25 18 38t29.5 14t30 -10t20.5 -38q2 -29 6 -56.5t11.5 -49t20.5 -31.5t34 -2q25 12 37 49t18 81t7 86t3 62q12 167 12 333.5t-12 332.5h-74q-27 4 -39 21.5t-11 38t15.5 36t41.5 15.5h243q25 0 40.5 -14.5t17.5 -33.5v-6q0 -17 -10 -32q-11 -19 -37 -25h-89 q2 -92 5.5 -175t5.5 -165q1 -41 1 -82t-1 -83q-2 -83 -11 -175q-2 -59 -7 -121.5t-21 -122.5q-18 -70 -66 -111q-42 -36 -87 -36q-5 0 -11 1q-51 5 -93 65.5t-48 195.5z" />
<glyph unicode="k" horiz-adv-x="456" d="M29 37q2 141 3 275t1 268.5v271v283.5q4 23 16 36t27.5 13t29 -11.5t21.5 -37.5q-2 -104 -2 -213v-217q59 109 115.5 215t119.5 192q20 18 39 15t29 -19t10 -41t-16 -49q-70 -109 -124 -211t-118 -197q31 -59 65 -126.5t66.5 -136t61 -135.5t51.5 -124q10 -27 5 -49.5 t-18.5 -32.5t-31 -5t-31.5 34q-63 121 -115.5 235.5t-105.5 225.5v-457q-4 -18 -17.5 -29.5t-28.5 -12.5h-3q-14 0 -28 8q-16 9 -21 32z" />
<glyph unicode="l" horiz-adv-x="425" d="M27 37q2 141 4 275t2 268.5v270.5v284q10 47 45 51h5q31 0 46 -47q-3 -165 -3 -333q0 -84 1 -169q2 -254 2 -508q57 17 117 21q17 1 34 1q41 0 80 -8q23 -9 32 -27q7 -14 7 -30v-6q-2 -18 -14 -34.5t-33 -20.5h-2h-132t-130 -31h-6q-16 0 -30 9q-18 11 -25 34z" />
<glyph unicode="m" horiz-adv-x="634" d="M35 37q4 141 5 274v133v134q-1 134 -2 268.5t-1 279.5q18 42 59 54q10 3 19 2q30 0 57 -31q27 -68 48.5 -173.5t36.5 -219t27.5 -223t22.5 -185.5q4 68 13.5 177.5t24.5 226t34.5 222t42.5 167.5q8 21 28 31q16 8 34 8q4 0 10 -1q24 -3 42.5 -20.5t20.5 -52.5 q12 -154 21.5 -290t14.5 -263t5 -246t-2 -237q0 -35 -14 -54q-14 -20 -32 -23q-3 -1 -7 -1q-14 0 -25 12q-14 14 -16 47q-4 211 -8.5 413t-24.5 406q-14 -111 -26.5 -213t-26 -202.5t-27.5 -199.5t-29 -204q-4 -29 -21 -43t-36.5 -13t-35 15.5t-15.5 42.5 q-14 96 -27.5 200.5t-28 210t-29.5 209t-32 197.5q0 -209 1 -417.5t1 -415.5q-4 -18 -18.5 -29.5t-30.5 -12.5t-31.5 8t-21.5 32z" />
<glyph unicode="n" horiz-adv-x="479" d="M39 35q2 139 3 272t1 266.5v269.5v281v2q0 2 2 4q0 20 9 34q8 14 22 18q5 1 10 1q10 -1 20 -5q16 -8 27 -25q29 -66 50.5 -137.5t41.5 -145.5q29 -100 55.5 -202.5t53.5 -206.5q2 68 4 166q2 99 3 197q0 49 1 94q0 44 -1 86q-1 82 -1 120q0 33 16.5 46.5t35 10.5 t33.5 -18.5t15 -38.5q-4 -164 -3 -326q0 -108 1 -214q1 -67 1 -134q0 -201 -9 -407q-18 -41 -46 -44h-4q-26 0 -46 36q-23 88 -38 162.5t-38 164.5q-29 119 -58.5 235t-62.5 232l-4 13q0 -200 1 -402v-135q0 -134 -1 -268q-4 -20 -16.5 -30.5t-27.5 -11.5h-3q-14 0 -26 9 q-14 10 -21 31z" />
<glyph unicode="o" horiz-adv-x="532" d="M39 581.5q0 116.5 13.5 236.5t47.5 209q36 89 98 132q34 24 79 24q37 0 81 -16q45 -31 74 -86t44.5 -124.5t18.5 -150.5q1 -32 2 -65q1 -49 -3 -98q-4 -82 -15.5 -159.5t-25.5 -143.5q-10 -47 -28.5 -114.5t-50.5 -124t-77 -90.5q-28 -21 -63 -21q-22 0 -46 8 q-27 10 -47 36.5t-35.5 60.5t-24.5 69t-15 61q-8 45 -17.5 142.5t-9.5 214zM132 568q1 -87 5 -144q2 -18 7.5 -62.5t14.5 -93.5t23 -92q13 -42 32 -60q9 -9 20 -9q11 -1 24 9q25 18 55 93q16 39 26.5 78t18.5 80q12 55 23.5 146t14.5 189q1 22 1 44q0 73 -8 141 q-10 88 -41 139q-12 16 -28 28q-16 13 -36 17q-9 2 -18 2q-10 0 -20 -3q-18 -5 -33 -26q-33 -45 -50.5 -125.5t-24.5 -172.5q-6 -80 -6 -156v-22z" />
<glyph unicode="p" horiz-adv-x="413" d="M35 37v173t2 169q0 184 -1 366.5t-1 387.5q10 39 39 46q5 1 10 1q22 0 39 -23q20 4 40 4q45 0 89 -22q35 -20 57.5 -56t35.5 -80.5t19.5 -89.5t10.5 -84q4 -59 6 -119v-26q0 -46 -5 -90q-7 -57 -25.5 -109.5t-55.5 -97.5q-25 -33 -72 -51.5t-90 -18.5v-278 q-6 -18 -19.5 -29.5t-28.5 -12.5h-3q-13 0 -26 8q-15 9 -21 32zM133 432q10 -2 19 -2q21 0 38 10q25 15 42.5 41.5t29 59t17.5 61.5q4 41 6 108v24q0 56 -7 114q-10 70 -33.5 126t-66.5 77q-16 0 -28.5 -2t-16.5 -13v-604z" />
<glyph unicode="q" horiz-adv-x="538" d="M35 588q0 117 13 235.5t48 208.5t96 134q33 25 78 25q36 0 78 -15q66 -47 95.5 -146.5t35.5 -219.5q2 -38 2 -76q0 -83 -9 -168q-13 -124 -34 -222q-6 -31 -17 -73t-26 -83q4 -14 9.5 -30.5t15.5 -28.5q23 20 49.5 7t26.5 -58q0 -27 -11.5 -45.5t-28.5 -27.5 q-14 -8 -32 -8h-4q-19 1 -35 15q-27 20 -49 60q-29 -45 -66 -66q-21 -11 -47 -11q-20 0 -43 7q-27 10 -47 38t-34.5 61.5t-23.5 68.5t-14 61q-10 45 -18 142.5t-8 214.5zM124 574q1 -87 5 -144q2 -18 7 -61t14.5 -90.5t21.5 -91.5t30 -63q10 -12 22 -12q8 0 16 6 q22 13 51 79q-10 29 -18 50t8 56q27 20 53 14l14 54q10 55 20.5 147t12.5 188v35q0 78 -7 150q-9 88 -40 137q-10 18 -26.5 31.5t-35.5 18.5q-9 2 -18 2t-18 -2q-17 -5 -31 -25q-33 -45 -50.5 -127t-24.5 -173q-6 -80 -6 -157v-22z" />
<glyph unicode="r" horiz-adv-x="518" d="M29 37q6 309 6 568v503q4 31 24.5 43t40.5 0q40 25 90 29q11 1 21 1q39 1 75 -11q46 -14 79.5 -44t40.5 -75q3 -23 2 -45q0 -50 -12 -94q-18 -64 -51.5 -121.5t-79.5 -108.5t-91 -98q59 -78 98 -144.5t86 -144.5q33 -53 62 -108.5t57 -112.5q3 -12 3 -22q0 -12 -4 -22 q-6 -18 -20 -27q-10 -7 -23 -7q-4 0 -9 1q-18 3 -35 21q-61 115 -121.5 222.5t-138.5 224.5v-426q-4 -18 -18.5 -29.5t-29.5 -12.5h-3q-14 0 -28 8q-16 9 -21 32zM127 690q61 59 110.5 123t67.5 137q5 23 5 41q0 29 -14 46q-22 28 -56 32q-8 1 -17 1q-26 0 -53 -10 q-35 -13 -43 -36v-334z" />
<glyph unicode="s" horiz-adv-x="442" d="M8 252q4 31 20.5 43t34 10t30.5 -19.5t13 -45.5v-8q0 -60 29 -88.5t64 -28.5h5q38 2 68.5 34.5t30.5 94.5q-2 82 -45 178t-94 198t-92 204q-37 93 -37 178v16q2 63 41 104q39 42 89 54q18 4 35 4q32 0 64 -15q48 -23 66 -86q6 -25 0 -44t-20.5 -28.5t-33 -6t-34.5 21.5 q-10 23 -29.5 38t-48.5 -5q-29 -16 -29 -47t8 -64q27 -96 80 -191.5t101 -192.5q48 -96 72 -200q11 -46 10 -94q0 -60 -17 -123q-12 -53 -49 -85t-83 -44q-28 -8 -57 -7q-18 0 -37 3q-48 8 -83 35q-48 39 -62 92q-11 42 -11 89q0 13 1 26z" />
<glyph unicode="t" horiz-adv-x="286" d="M-72 1107v6q0 13 8 27q10 16 29 27q16 6 65.5 10.5t104.5 5.5h36q35 0 69 -1q50 -2 63 -4q25 -6 35 -24q8 -13 8 -27q0 -5 -1 -9q-3 -18 -17.5 -33.5t-36.5 -15.5q-25 0 -56.5 -1t-62.5 -5v-196.5v-220.5v-268.5v-338.5q-4 -18 -18 -29q-16 -12 -32 -13h-3q-15 0 -28 8 q-15 9 -21 32q4 264 4 517v507h-36t-18.5 -1t-14.5 -2t-25 -3q-25 6 -37.5 20.5t-14.5 31.5z" />
<glyph unicode="u" horiz-adv-x="518" d="M34 684q1 111 1 178q0 4 1 42t2 84t3 88t6 54q0 20 17.5 35t37.5 17h6q18 0 34 -10q18 -12 20 -48l-8 -147q-9 -136 -9 -272q1 -21 1 -41q2 -156 18 -312q2 -10 6 -45t12 -74.5t21.5 -73.5t36.5 -40q8 -4 26.5 13.5t38 44t33.5 55t18 49.5q12 85 14 193q1 64 0 131v89 q-1 112 -1 224t6 204v2q0 27 14 40.5t31.5 14.5t33 -11.5t21.5 -37.5q3 -81 3 -167q0 -43 -1 -88q-2 -134 -6 -269t-6 -269q-1 -34 -1 -66q0 -98 5 -189q0 -41 -15.5 -63.5t-35 -22.5t-36.5 24.5t-20 79.5q-18 -37 -45.5 -63.5t-59.5 -34.5q-13 -3 -26 -3q-19 0 -37 7 q-32 12 -61 55q-43 61 -63.5 168t-28.5 225q-7 105 -7 205v25z" />
<glyph unicode="v" horiz-adv-x="442" d="M25 1124q2 30 17 44q13 13 29 12h5q18 -2 34.5 -17.5t22.5 -44.5q6 -82 14.5 -182t18.5 -206.5t20.5 -209t20.5 -188.5q23 190 42 395t42 395q6 29 24.5 42.5t37 13.5t33.5 -15.5t15 -44.5q-39 -266 -69.5 -541.5t-77.5 -533.5q0 -12 -12.5 -25.5t-29.5 -17.5 q-5 -1 -10 -1q-12 0 -24 6q-16 9 -26 38q-39 268 -75 533t-52 548z" />
<glyph unicode="w" horiz-adv-x="716" d="M25 1108q4 33 16 49.5t27.5 18.5t31 -10.5t25.5 -39.5q20 -215 35.5 -349t27 -217t19.5 -128t16 -82q16 100 38 201.5t44 206.5q6 23 20.5 35t30 12t29.5 -12.5t21 -36.5q10 -115 24 -213.5t31 -210.5q18 102 33.5 200.5t30 196.5t28.5 201.5t33 214.5q2 19 20 27 q13 6 26 6q4 0 10 -1q20 -3 35 -17q13 -12 13 -32v-6q-29 -270 -72 -526t-96 -533q-14 -55 -45 -56t-53 22q-8 16 -16.5 44.5t-17.5 77t-20.5 117t-25.5 162.5q-12 -57 -19.5 -102t-14.5 -88t-14 -89.5t-16 -103.5q-12 -41 -46 -43h-3q-31 0 -51 43q-6 10 -20.5 68.5 t-32.5 145.5t-36.5 196.5t-34.5 223.5q-15 115 -24 225q-7 90 -7 168v34z" />
<glyph unicode="x" horiz-adv-x="491" d="M27 82q18 68 36.5 128t37 116.5t36 112t33.5 112.5q-18 66 -36.5 138.5t-37 146t-34 146.5t-25.5 140q-2 25 8 42q11 18 27 24q8 3 16 3q10 0 18 -3q18 -6 31 -27q31 -104 51.5 -223t42.5 -221q12 61 26.5 124.5t29 122t27 108.5t20.5 81q8 23 29.5 29t41 0t32 -22.5 t3.5 -37.5q-2 -14 -11 -56t-23.5 -96.5t-31 -116.5t-31.5 -120.5t-28.5 -104.5t-19.5 -69q18 -57 39.5 -119.5l43 -125t43 -124t38.5 -116.5q5 -14 5 -26q0 -14 -6 -24q-12 -18 -30 -23q-7 -2 -14 -2q-12 0 -24 5q-20 8 -23 31q-37 96 -66 184t-70 195q-31 -90 -59.5 -189.5 t-62.5 -197.5q-7 -17 -23 -23q-8 -3 -15 -3q-9 0 -17 3q-16 6 -24 26q-5 11 -6 26q0 12 3 26z" />
<glyph unicode="y" horiz-adv-x="483" d="M25 1124q4 25 19 38.5t32 15.5h6q14 0 28 -10q17 -11 23 -35q8 -82 26.5 -164t47.5 -160q23 45 44 89t44.5 87t52.5 84t68 84q23 18 44 21.5t35.5 -6t19.5 -28.5q2 -6 2 -12q0 -14 -7 -30q-53 -74 -108.5 -165t-96.5 -183q-6 -12 -14 -36t-17.5 -50.5t-15.5 -50t-6 -35.5 q0 -98 1 -173t2 -135.5t1 -113t-4 -105.5q-6 -23 -21.5 -36t-33 -13t-32.5 11.5t-22 37.5q0 145 1 293v99q0 98 -1 196q-20 41 -40.5 108.5t-37 138t-27.5 136t-13 102.5z" />
<glyph unicode="z" horiz-adv-x="419" d="M34 85v6q0 41 13 106q18 82 50 197.5t66 237.5t60.5 236.5t36.5 194.5q-31 3 -60 3q-15 0 -29 -1q-42 -2 -87 -2q-23 2 -34 16.5t-13 31.5t7 34.5t30 25.5q82 1 142 7q14 1 26 2q42 0 70 -14q36 -18 44 -72q2 -14 3 -32q0 -52 -19 -138q-20 -111 -46 -214.5t-52.5 -201.5 t-52 -192.5t-46.5 -186.5q16 -4 42 -4t51.5 1t48 2t32.5 -3q27 -11 35 -29q5 -11 5 -23q0 -7 -2 -15q-5 -20 -20.5 -35t-35.5 -15q-82 -8 -135 -8h-20q-58 2 -83.5 22.5t-26.5 62.5z" />
<glyph unicode="{" horiz-adv-x="452" d="M6 781q10 40 57 57q4 0 11 6q45 33 54 114.5t2 185t-18.5 215t-8.5 205t31 154t102 64.5q31 4 57 3t55 -5q35 -10 51.5 -32t14.5 -46.5t-20.5 -46t-51.5 -29.5l-57 -2q-20 -70 -21.5 -139.5t4.5 -140t14.5 -142.5t6.5 -145.5t-19.5 -148t-60.5 -152.5q49 -94 52 -186.5 t-7 -184.5t-20.5 -183t12.5 -184q27 -23 49 -23.5t45 -0.5q39 0 62.5 -20.5t26.5 -46t-14.5 -50t-56.5 -33.5q-129 0 -188 44t-76.5 117t-6.5 163t22.5 182t8.5 176t-48 146q10 -10 5 -5t-15.5 14t-20.5 16.5t-6 2.5q-37 41 -27 81zM88 852v2v-2z" />
<glyph unicode="|" horiz-adv-x="219" d="M29 -152q0 451 1 904.5t5 926.5q0 45 23.5 70t53 26t53 -24t23.5 -78q0 -238 -1 -475t-2 -468.5t-2 -454t-1 -427.5q0 -59 -23.5 -86.5t-53 -26.5t-53 29.5t-23.5 83.5z" />
<glyph unicode="}" horiz-adv-x="464" d="M17 -72.5q3 25.5 26 46t63 20.5q23 0 44.5 1t48.5 23q23 92 13.5 183.5t-20 183.5t-6.5 184.5t54 186.5q-45 78 -62.5 152.5t-19.5 148t6 145.5t14 142.5t5 140t-21 139.5l-58 2q-35 8 -53 29.5t-19 46t15 46.5t51 32q51 8 111 2q55 -2 85 -38t41 -95.5t9 -134t-9 -155.5 t-14.5 -163t-7.5 -151.5t12.5 -123t45.5 -77.5q4 -2 6 -4t4 -2q49 -16 58.5 -56.5t-25.5 -81.5q2 4 -7.5 -3t-19.5 -16t-15 -14t5 5q-45 -59 -48 -144.5t8 -177.5t22.5 -182t-5 -163t-77 -117t-189.5 -44q-41 8 -57.5 33t-13.5 50.5zM358 854l2 -2q-2 0 -2 2z" />
<glyph unicode="~" horiz-adv-x="819" d="M17.5 567.5q-7.5 28.5 15.5 63.5q31 39 62.5 86t69.5 82t85 46t106 -20q18 -12 48 -37.5t60 -53t56.5 -48t42.5 -20.5q25 0 40 17t26.5 41t20.5 47.5t22 37.5q12 16 31.5 23.5t39 3t36 -19.5t24.5 -44q0 -41 -27.5 -98.5t-74 -102.5t-108 -61t-128.5 27q-18 10 -43 34.5 t-49.5 49t-49 42t-42.5 17.5q-20 -2 -35 -15.5t-27 -34t-27.5 -44t-35.5 -43.5q-25 -29 -55.5 -32t-53 12.5t-30 44z" />
<glyph unicode="&#xa1;" horiz-adv-x="251" d="M12 1048.5q-8 38.5 23 81.5q33 47 76 47.5t73.5 -26.5t40 -73t-25.5 -91q-37 -29 -78 -26.5t-71 26t-38 62zM43 727q2 -129 4 -223t2 -172v-148.5v-150.5t-1 -178.5t-1 -231.5q6 -31 26.5 -48t43 -19t45 14t35.5 51q-2 123 -2 218v176t1 156t1 158v179v219q-8 27 -30 42 t-45.5 16t-46 -13t-32.5 -45z" />
<glyph unicode="&#xa2;" horiz-adv-x="870" d="M27 569.5q4 112.5 33.5 220t88 201.5t142.5 162q70 43 136.5 45t125.5 -23.5t109.5 -72.5t87 -101.5t57 -108.5t20.5 -93q0 -35 -17 -61.5t-42 -35t-49.5 6t-38.5 61.5q-8 37 -33.5 86t-62.5 90t-82 63.5t-88 4.5q-57 -25 -101.5 -83.5t-72 -136t-37.5 -166.5t1 -174 t47 -157t97 -115q51 -35 105.5 -16.5t100.5 61.5t78 96.5t40 88.5q14 47 43.5 65.5t57.5 12t43 -35t3 -75.5q-6 -45 -28.5 -99.5t-59.5 -106.5t-86 -95t-110.5 -66.5t-132 -20.5t-148.5 44q-80 49 -131 133t-75.5 186.5t-20.5 215zM371 124v235.5t1 218t1 220t1 242.5t3 285 q0 45 23.5 69.5t53 26.5t53 -22.5t23.5 -77.5v-292t-1 -249.5t-2 -226.5t-2 -219.5t-1 -228v-255.5q0 -59 -23.5 -86.5t-53 -26.5t-53 29.5t-23.5 83.5v274z" />
<glyph unicode="&#xa3;" horiz-adv-x="1107" d="M17.5 125q7.5 53 38 102t76.5 82t102.5 40t113.5 -23q14 88 22.5 164.5t12.5 145.5t6 131t6 126q4 88 10.5 178t22.5 178t49 170t92 154q49 61 109.5 91t122 33t122 -20.5t113.5 -72.5q23 -29 22 -55.5t-17.5 -45t-44 -24.5t-60.5 8q-51 47 -99.5 54t-91.5 -17.5 t-76.5 -74.5t-58.5 -118q-35 -106 -44 -220t-15 -232q-4 -61 -6 -125t-6 -134.5t-13.5 -150.5t-27.5 -178q53 -14 94 -33.5t81 -37t85 -32t106 -18.5q68 -4 108 16.5t81 55.5q37 41 68.5 52t51 2t23.5 -36t-12 -59q-74 -111 -160 -142.5t-179 -20.5t-191.5 48t-196.5 68 q-4 -6 -6 -9.5t-5 -7.5q-27 -39 -59.5 -86t-72.5 -83t-88 -48t-109 19q-61 33 -84 83t-15.5 103zM171 102.5q-7 -26.5 15 -28.5q4 2 9.5 2t15.5 9t29.5 31.5t54.5 65.5q-20 23 -48 9.5t-48.5 -38t-27.5 -51zM187 885.5q-1 23.5 14.5 46t48.5 33.5h471q35 0 51 -23.5 t15 -51.5t-17 -52.5t-45 -26.5h-479q-27 8 -42.5 29.5t-16.5 45z" />
<glyph unicode="&#xa4;" horiz-adv-x="1159" d="M28 78.5q-5 27.5 15 50.5l152 152q-20 37 -36 77.5t-24 87.5q-23 104 -13.5 213t58.5 201l-137 137q-14 25 -10 49.5t20.5 43t42 23.5t56.5 -9l127 -127q26 26 69 49q76 43 148.5 55.5t138 1t124 -44t105.5 -82.5l142 140q25 14 49 10t42.5 -20.5t24.5 -42t-8 -56.5 l-160 -162q37 -76 50.5 -165t-5.5 -183q-18 -92 -55 -164l170 -170q25 -27 18.5 -54.5t-27 -46.5t-49 -24.5t-50.5 15.5l-158 155q-59 -53 -131 -81.5t-146.5 -31.5t-147.5 18.5t-132 70.5l-139 -139q-25 -25 -52.5 -20t-47 25.5t-24.5 48zM270.5 637q-12.5 -96 13 -184 t90 -150.5t165.5 -69.5q66 -6 122 16.5t98 69t67.5 114t29.5 149.5q4 70 -11.5 149.5t-72.5 130.5q-43 39 -103.5 56.5t-123 11.5t-118.5 -37t-93 -84q-51 -76 -63.5 -172z" />
<glyph unicode="&#xa5;" horiz-adv-x="770" d="M34 463.5q-1 23.5 13 46t45 33.5h148v49h-150q-27 6 -41 26.5t-15 44t13 46t45 34.5h148v144q-31 57 -60.5 150t-53.5 191.5t-39 189.5t-17 145q6 33 27.5 52t46 20t47 -14t32.5 -50q12 -115 36 -228.5t65 -224.5q33 66 62.5 126.5t63 119.5t73.5 117.5t95 117.5 q31 27 60 31t49.5 -8t26.5 -37.5t-6 -58.5q-76 -106 -152 -234.5t-135 -251.5q-8 -16 -20.5 -49t-25 -69.5t-20.5 -70.5t-8 -48v-60h178q35 0 51.5 -23.5t15.5 -51t-17.5 -52t-47.5 -24.5h-180v-49h178q35 0 51.5 -23.5t15.5 -51.5t-17.5 -52.5t-47.5 -26.5h-178 q4 -92 3 -169t-5 -154q-10 -33 -31.5 -49.5t-44 -17.5t-43 15.5t-28.5 51.5v323h-150q-27 8 -41 29.5t-15 45z" />
<glyph unicode="&#xa6;" horiz-adv-x="219" d="M29 21.5v90v36t1 8.5t1 9t1 39t1 97t2 182q0 43 23.5 67.5t53 26t53 -23.5t23.5 -78v-186.5t-1 -101t-1 -44t-1 -13.5t-1 -9t-1 -33t-1 -82v-158q0 -59 -23.5 -86.5t-53 -26.5t-53 29.5t-23.5 83.5v173.5zM29 1049v173v88.5v34t1 7.5t1 9t1 39t1 97t2 182q0 45 23.5 70 t53 26t53 -24t23.5 -78v-186.5t-1 -101t-1 -44t-1 -13.5t-1 -9t-1 -31.5t-1 -81v-157.5q0 -59 -23.5 -87t-53 -27t-53 29.5t-23.5 84.5z" />
<glyph unicode="&#xa7;" horiz-adv-x="673" d="M39 -186q8 39 33.5 56t53.5 14t48.5 -26.5t20.5 -62.5q-2 -59 19.5 -98t55 -56.5t72.5 -16.5t74 22.5t57.5 60.5t22.5 96q-2 74 -34 148t-78 147.5t-100.5 148.5t-100.5 152.5t-74.5 158.5t-24.5 169q4 82 56.5 136.5t123.5 74.5q-35 57 -68.5 116.5t-58 119t-39 121 t-10.5 122.5q4 86 63.5 142.5t136.5 73t149.5 -14.5t103.5 -119q10 -35 -0.5 -60.5t-31 -39t-48 -9t-53.5 28.5q-16 33 -45 54.5t-74 -5.5q-23 -12 -33 -29.5t-12 -38t3 -43t11 -44.5q35 -121 105.5 -228t138.5 -213q6 -8 12 -17t10 -19q39 -61 70 -124t48 -129.5t17 -139 t-22 -152.5q-14 -47 -45 -83t-72 -58q37 -59 67.5 -113.5t48 -111t17.5 -121t-22 -144.5q-20 -72 -76.5 -116t-128.5 -61.5t-145.5 -6t-126.5 48.5q-76 53 -97.5 127t-17.5 162zM240 712.5q0 -42.5 12 -89.5q29 -92 78 -174t102 -162q29 23 47.5 59.5t18.5 87.5 q-2 86 -39 170t-92 176q-37 25 -82 2q-45 -27 -45 -69.5z" />
<glyph unicode="&#xa8;" horiz-adv-x="514" d="M27.5 1378q9.5 39 38 61.5t70.5 26t79 -27.5q35 -45 25.5 -90t-41 -72t-75.5 -27t-77 47q-29 43 -19.5 82zM271.5 1378q9.5 39 38 61.5t70.5 26t79 -27.5q35 -45 25.5 -90t-41 -72t-75.5 -27t-77 47q-29 43 -19.5 82z" />
<glyph unicode="&#xa9;" horiz-adv-x="1441" d="M24.5 799.5q6.5 154.5 53.5 303t136 265.5t216 188.5t291 71.5q182 0 314 -69.5t217 -183t124 -259t35 -298t-52 -299t-136 -262.5t-215 -187.5t-291 -75.5q-182 -6 -315.5 61.5t-219.5 181t-125 261t-32.5 302zM192.5 797q-6.5 -129 21.5 -251t91.5 -215t166 -145.5 t245.5 -42.5q129 10 228 73t166 157t101.5 213t35.5 240.5t-30.5 237.5t-97 208t-167 148.5t-236.5 60.5q-119 2 -213 -56.5t-162 -154.5t-105.5 -220t-44 -253zM520.5 784.5q2.5 122.5 16.5 231.5q10 123 32.5 217t71.5 139q45 31 82 31t66.5 -22.5t51 -61.5t36 -83 t21.5 -89t7 -78q0 -25 -14 -42t-31.5 -21.5t-33 5t-17.5 38.5q-6 25 -13.5 67.5t-18.5 82.5t-29.5 65.5t-45.5 11.5q-16 -12 -30 -66q-37 -166 -41 -304t0 -271q0 -12 3 -56t10 -95.5t19.5 -95.5t28.5 -54q27 -16 44.5 8.5t28.5 65.5t18.5 86l11.5 69q2 25 18 34t32.5 4 t31 -21.5t14.5 -40.5q-4 -33 -12.5 -77t-22.5 -87t-35.5 -81t-49.5 -60.5t-62.5 -23.5t-77.5 30q-41 33 -66.5 117.5t-36 194.5t-8 232.5z" />
<glyph unicode="&#xab;" horiz-adv-x="1220" d="M63 745q80 66 150 118t136.5 101.5t134 100t145.5 111.5q31 25 62.5 22.5t50 -22t20.5 -49t-25 -60.5q-68 -55 -132 -104.5t-126.5 -96.5t-127 -94t-134.5 -98q123 -92 251 -187.5t249 -191.5q29 -23 32 -53.5t-12.5 -53t-44 -30.5t-63.5 12h-2q-141 104 -276.5 204.5 t-284.5 203.5q-94 92 -3 167zM510 578q-94 92 0 167q80 66 147.5 118t134 101.5t134 100t145.5 111.5q33 25 64.5 22.5t51 -22t20.5 -49t-27 -60.5q-68 -55 -131.5 -104.5t-127 -96.5t-128 -94t-134.5 -98q123 -92 251 -187.5t251 -191.5q31 -23 33 -53.5t-13.5 -53 t-45 -30.5t-64.5 12h-2q-141 104 -275.5 204.5t-283.5 203.5z" />
<glyph unicode="&#xad;" d="M34 662.5q-1 23.5 13 46t45 34.5h473q35 0 51.5 -23.5t15.5 -51t-17.5 -52t-47.5 -24.5h-477q-27 6 -41 26.5t-15 44z" />
<glyph unicode="&#xae;" horiz-adv-x="1435" d="M24.5 799.5q6.5 154.5 53.5 303t136 265.5t216 188.5t291 71.5q182 0 314 -69.5t217 -183t124 -259t35 -298t-52 -299t-136 -262.5t-215 -187.5t-291 -75.5q-182 -6 -315.5 61.5t-219.5 181t-125 261t-32.5 302zM192.5 797q-6.5 -129 21.5 -251t91.5 -215t166 -145.5 t245.5 -42.5q129 10 228 73t166 157t101.5 213t35.5 240.5t-30.5 237.5t-97 208t-167 148.5t-236.5 60.5q-119 2 -213 -56.5t-162 -154.5t-105.5 -220t-44 -253zM520 264q6 309 4 567t-2 506q6 29 27.5 41.5t42.5 -0.5q39 25 89 29t96 -10.5t80 -45t40 -75.5 q8 -74 -9.5 -138.5t-51 -122t-79.5 -108.5t-91 -98q88 -121 151.5 -243t126.5 -244q6 -23 0 -41.5t-19.5 -27.5t-30.5 -8t-34 19q-31 57 -58.5 110.5t-55 104.5t-58.5 102.5t-70 108.5q4 -217 0 -426q-6 -18 -19 -29.5t-28.5 -11.5t-30 9.5t-20.5 31.5zM618 918 q61 59 110.5 122.5t66.5 137.5q14 59 -7.5 86.5t-56.5 33t-70 -9t-43 -39.5v-331z" />
<glyph unicode="&#xb0;" horiz-adv-x="628" d="M16.5 1344.5q6.5 82.5 42 152.5t98 116t148.5 44q96 -2 163 -48t101.5 -116t36.5 -150.5t-30.5 -150.5t-99.5 -117t-171 -49q-106 0 -171.5 47t-94.5 118t-22.5 153.5zM165 1337.5q-1 -59.5 33.5 -107.5t106.5 -46q78 2 117 50t39 106.5t-37 106.5t-113 48 q-72 0 -108.5 -49t-37.5 -108.5z" />
<glyph unicode="&#xb4;" horiz-adv-x="329" d="M32 1306.5q11 -28.5 35 -43t53.5 -8t49.5 44.5q20 37 35 63t26 48.5t23.5 46t28.5 60.5t4 65.5t-37.5 40.5t-55 4t-52.5 -45q-29 -49 -56.5 -108.5t-50.5 -108.5q-14 -31 -3 -59.5z" />
<glyph unicode="&#xb5;" horiz-adv-x="679" d="M45 104.5v192.5t1 163t1 165t1 199.5t3 269.5q0 43 23.5 67.5t53.5 25.5t53.5 -23.5t23.5 -78.5v-526q0 -27 -2 -88t4 -124.5t26.5 -113t65.5 -51.5q37 -2 66.5 22.5t51 61.5t35 77t17.5 69q12 41 18.5 130t9.5 192.5t3 202.5t2 163q0 4 1 5t1 3q2 37 21.5 55.5t44 18.5 t47 -16.5t30.5 -51.5q2 -41 2 -118.5t-2 -174t-4 -203t-4 -204t-2 -176t2 -121.5q0 -55 -22.5 -85t-50 -30t-52.5 34t-27 109q-49 -94 -125.5 -127.5t-162.5 33.5v-203q0 -59 -23.5 -86.5t-53.5 -26.5t-53.5 29.5t-23.5 83.5v256.5z" />
<glyph unicode="&#xb8;" horiz-adv-x="421" d="M14 -269.5q0 19.5 11.5 32t36 14.5t67.5 -13q6 -2 19.5 -7t30 -11t30.5 -10t24 -4q-23 35 -47 65.5t-49 61.5q-8 10 -11 28.5t-3 39t1 40t1 31.5q0 43 23.5 66.5t53 24.5t53.5 -21.5t24 -67.5q0 -12 -1.5 -25.5t-5.5 -35.5q23 -31 49.5 -64t47 -68.5t30 -74.5t-1.5 -80 q-14 -53 -67.5 -68.5t-115.5 -4.5t-117.5 43t-76.5 73q-6 16 -6 35.5z" />
<glyph unicode="&#xbb;" horiz-adv-x="1228" d="M12 1127.5q2 29.5 20.5 49t50 22t62.5 -22.5q78 -61 145.5 -111.5t134.5 -100t136.5 -101.5t149.5 -118q92 -76 -2 -167q-150 -102 -285 -203t-274 -205h-5q-35 -20 -63.5 -12t-43.5 30.5t-12 53t31 53.5q121 96 249 191.5t251 187.5q-68 51 -132.5 98t-128 94t-128 96.5 t-131.5 104.5q-27 31 -25 60.5zM455.5 1127.5q1.5 29.5 21 49t51 22t64.5 -22.5q76 -61 143.5 -111.5t134 -100t135 -101.5t148.5 -118q94 -76 -2 -167q-147 -102 -282.5 -203t-276.5 -205q-37 -20 -66.5 -12t-45 30.5t-12.5 53t34 53.5q119 96 247 191.5t250 187.5 q-137 100 -259 191t-257 202q-29 31 -27.5 60.5z" />
<glyph unicode="&#xbf;" horiz-adv-x="843" d="M29 -154q6 74 22.5 124t41 87t55 63.5t64.5 55.5t68.5 64.5t69.5 89.5q20 29 26.5 81t6.5 110.5t-4 115.5t0 98q12 27 32.5 42.5t42 16.5t43 -12.5t33.5 -42.5v-227.5t-34 -232.5q-14 -47 -46 -84t-70 -69t-77 -62.5t-70 -65.5q-25 -29 -40 -72t-16 -87t13.5 -86 t51.5 -66q63 -47 139 -41t139.5 48t104 109.5t34.5 141.5q0 33 21.5 47t49.5 11t52.5 -22.5t28.5 -54.5q0 -70 -20.5 -134t-57.5 -117.5t-90 -92.5t-119 -57q-90 -25 -183 -19.5t-167 43t-116 110.5t-29 187zM343 1079q9 45 41 73t75 28t78 -47q29 -43 19.5 -82t-38.5 -62.5 t-70.5 -26t-78.5 26.5q-35 45 -26 90z" />
<glyph unicode="&#xc0;" horiz-adv-x="653" d="M20 88q18 369 62.5 738.5t105.5 738.5q6 27 33 43t57.5 18t58.5 -12.5t38 -48.5q33 -188 65.5 -370.5t65.5 -363t63.5 -361.5t59.5 -372q2 -39 -16.5 -64.5t-44 -32.5t-52.5 8.5t-39 56.5q-10 70 -20.5 132t-21.5 123.5t-23.5 124t-24.5 132.5q-41 4 -86 -1t-94 -34 q-14 -117 -21.5 -235t-11.5 -234q-6 -41 -29.5 -58.5t-49 -14.5t-48 24.5t-27.5 62.5zM162 2025.5q12 28.5 37.5 40.5t55 4t52.5 -45q29 -49 56.5 -108.5t50.5 -108.5q14 -31 3 -59.5t-35 -43t-53.5 -8t-49.5 44.5q-20 37 -35 63t-26 48.5t-23.5 46t-28.5 60.5t-4 65.5z M225 719q35 8 69 10t68 2q-16 100 -33.5 200.5t-33.5 203.5l-10 59q-4 -29 -6.5 -56.5t-6.5 -56.5z" />
<glyph unicode="&#xc1;" horiz-adv-x="653" d="M20 88q18 369 62.5 738.5t105.5 738.5q6 27 33 43t57.5 18t58.5 -12.5t38 -48.5q33 -188 65.5 -370.5t65.5 -363t63.5 -361.5t59.5 -372q2 -39 -16.5 -64.5t-44 -32.5t-52.5 8.5t-39 56.5q-10 70 -20.5 132t-21.5 123.5t-23.5 124t-24.5 132.5q-41 4 -86 -1t-94 -34 q-14 -117 -21.5 -235t-11.5 -234q-6 -41 -29.5 -58.5t-49 -14.5t-48 24.5t-27.5 62.5zM158 1748.5q11 -28.5 35 -43t53.5 -8t49.5 44.5q20 37 35 63t26 48.5t23.5 46t28.5 60.5t4 65.5t-37.5 40.5t-55 4t-52.5 -45q-29 -49 -56.5 -108.5t-50.5 -108.5q-14 -31 -3 -59.5z M225 719q35 8 69 10t68 2q-16 100 -33.5 200.5t-33.5 203.5l-10 59q-4 -29 -6.5 -56.5t-6.5 -56.5z" />
<glyph unicode="&#xc2;" horiz-adv-x="653" d="M-5 1761.5q-5 31.5 20 62.5q35 41 91 95.5t99 95.5q14 14 36 22.5t45.5 8.5t47 -7.5t39.5 -25.5q49 -51 89 -98.5t81 -98.5q25 -33 20 -64.5t-28 -48t-56.5 -13.5t-64.5 40q-2 0 -30.5 38t-98.5 110q-41 -43 -75.5 -75t-73.5 -73q-29 -35 -61 -36t-53.5 17.5t-26.5 50z M20 88q18 369 62.5 738.5t105.5 738.5q6 27 33 43t57.5 18t58.5 -12.5t38 -48.5q33 -188 65.5 -370.5t65.5 -363t63.5 -361.5t59.5 -372q2 -39 -16.5 -64.5t-44 -32.5t-52.5 8.5t-39 56.5q-10 70 -20.5 132t-21.5 123.5t-23.5 124t-24.5 132.5q-41 4 -86 -1t-94 -34 q-14 -117 -21.5 -235t-11.5 -234q-6 -41 -29.5 -58.5t-49 -14.5t-48 24.5t-27.5 62.5zM225 719q35 8 69 10t68 2q-16 100 -33.5 200.5t-33.5 203.5l-10 59q-4 -29 -6.5 -56.5t-6.5 -56.5z" />
<glyph unicode="&#xc3;" horiz-adv-x="653" d="M-2 1837q12 39 35.5 80t54.5 68.5t66.5 35.5t76.5 -14q23 -12 47.5 -39t48 -47.5t47 -28.5t46.5 16q16 27 19 44.5t7 25.5q12 31 37 41t48.5 0t38 -40t3.5 -81q-10 -49 -37.5 -90t-67.5 -64.5t-88 -22.5t-95 36q-29 23 -54.5 49.5t-58.5 48.5q-23 -37 -33 -73.5 t-51 -65.5q-66 -12 -89.5 24.5t-0.5 96.5zM20 88q18 369 62.5 738.5t105.5 738.5q6 27 33 43t57.5 18t58.5 -12.5t38 -48.5q33 -188 65.5 -370.5t65.5 -363t63.5 -361.5t59.5 -372q2 -39 -16.5 -64.5t-44 -32.5t-52.5 8.5t-39 56.5q-10 70 -20.5 132t-21.5 123.5t-23.5 124 t-24.5 132.5q-41 4 -86 -1t-94 -34q-14 -117 -21.5 -235t-11.5 -234q-6 -41 -29.5 -58.5t-49 -14.5t-48 24.5t-27.5 62.5zM225 719q35 8 69 10t68 2q-16 100 -33.5 200.5t-33.5 203.5l-10 59q-4 -29 -6.5 -56.5t-6.5 -56.5z" />
<glyph unicode="&#xc4;" horiz-adv-x="653" d="M20 88q18 369 62.5 738.5t105.5 738.5q6 27 33 43t57.5 18t58.5 -12.5t38 -48.5q33 -188 65.5 -370.5t65.5 -363t63.5 -361.5t59.5 -372q2 -39 -16.5 -64.5t-44 -32.5t-52.5 8.5t-39 56.5q-10 70 -20.5 132t-21.5 123.5t-23.5 124t-24.5 132.5q-41 4 -86 -1t-94 -34 q-14 -117 -21.5 -235t-11.5 -234q-6 -41 -29.5 -58.5t-49 -14.5t-48 24.5t-27.5 62.5zM54.5 1820q9.5 39 38 61.5t70.5 26t79 -27.5q35 -45 25.5 -90t-41 -72t-75.5 -27t-77 47q-29 43 -19.5 82zM225 719q35 8 69 10t68 2q-16 100 -33.5 200.5t-33.5 203.5l-10 59 q-4 -29 -6.5 -56.5t-6.5 -56.5zM298.5 1820q9.5 39 38 61.5t70.5 26t79 -27.5q35 -45 25.5 -90t-41 -72t-75.5 -27t-77 47q-29 43 -19.5 82z" />
<glyph unicode="&#xc5;" horiz-adv-x="653" d="M20 88q18 369 62.5 738.5t105.5 738.5q6 27 33 43t57.5 18t58.5 -12.5t38 -48.5q33 -188 65.5 -370.5t65.5 -363t63.5 -361.5t59.5 -372q2 -39 -16.5 -64.5t-44 -32.5t-52.5 8.5t-39 56.5q-10 70 -20.5 132t-21.5 123.5t-23.5 124t-24.5 132.5q-41 4 -86 -1t-94 -34 q-14 -117 -21.5 -235t-11.5 -234q-6 -41 -29.5 -58.5t-49 -14.5t-48 24.5t-27.5 62.5zM87 1888q-3 53 15.5 101t61.5 82t115 40q61 -4 106 -34.5t71 -77t30 -98.5t-16.5 -97t-66.5 -77t-120 -36q-57 -4 -100 25t-68 74t-28 98zM225 719q35 8 69 10t68 2q-16 100 -33.5 200.5 t-33.5 203.5l-10 59q-4 -29 -6.5 -56.5t-6.5 -56.5zM236 1894q0 -18 10 -34.5t33 -16.5q31 -2 44 14.5t11 37t-16.5 36.5t-38.5 14q-23 0 -33 -16.5t-10 -34.5z" />
<glyph unicode="&#xc6;" horiz-adv-x="1013" d="M20 88q18 369 62.5 738.5t105.5 738.5q6 27 33 43t57.5 18t58.5 -12.5t38 -48.5l74 -416v301q-29 61 -8.5 100t69.5 59.5t116.5 24.5t133 -2t119 -19.5t73.5 -29.5q25 -25 27 -49.5t-12.5 -41.5t-40 -26.5t-56.5 -3.5q-74 4 -140 11.5t-136 -5.5v-320.5t2 -326.5 q51 -2 95 7.5t91 13.5q23 4 44.5 -3.5t36 -22.5t16.5 -38.5t-17 -50.5q-47 -41 -120.5 -54.5t-145.5 -8.5q4 -135 4 -258t-4 -256q78 2 160 14t151 41q37 8 59.5 -8.5t30 -42t-4 -54t-42.5 -45.5q-92 -35 -203.5 -48t-209.5 -9q-35 6 -65 27.5t-30 62.5t2 82t2 82 q-12 82 -27.5 158.5t-31.5 167.5q-41 4 -86 -1.5t-94 -33.5q-14 -117 -21.5 -235t-11.5 -234q-6 -41 -29.5 -58.5t-49 -14.5t-48 24.5t-27.5 62.5zM225 719q35 8 69 10t68 2q-16 100 -33.5 200.5t-33.5 203.5l-10 59q-4 -29 -6.5 -56.5t-6.5 -56.5z" />
<glyph unicode="&#xc7;" horiz-adv-x="438" d="M14 -269.5q0 19.5 11.5 32t36 14.5t67.5 -13q6 -2 19.5 -7t30 -11t30.5 -10t24 -4q-23 35 -47 65.5t-49 61.5q-8 10 -11 28.5t-3 39t1 40t1 31.5q0 43 23.5 66.5t53 24.5t53.5 -21.5t24 -67.5q0 -12 -1.5 -25.5t-5.5 -35.5q23 -31 49.5 -64t47 -68.5t30 -74.5t-1.5 -80 q-14 -53 -67.5 -68.5t-115.5 -4.5t-117.5 43t-76.5 73q-6 16 -6 35.5z" />
<glyph unicode="&#xc8;" horiz-adv-x="587" d="M18.5 1550q20.5 39 69.5 59.5t116.5 24.5t133 -2t119 -19.5t73.5 -29.5q25 -25 27 -49.5t-12.5 -41.5t-40 -26.5t-55.5 -3.5q-74 4 -140.5 11.5t-136.5 -5.5v-320.5t2 -326.5q51 -2 95 7.5t91 13.5q23 4 44.5 -3.5t36 -22.5t16.5 -38.5t-17 -50.5q-47 -41 -120.5 -54.5 t-145.5 -8.5q4 -135 4 -258t-4 -256q78 2 160 14t151 41q37 8 59.5 -8.5t30 -42t-4 -54t-42.5 -45.5q-92 -35 -203.5 -48t-209.5 -9q-35 6 -65 27.5t-30 62.5q6 180 7.5 346t1.5 330t-1 333t-1 353q-29 61 -8.5 100zM146 2025.5q12 28.5 37.5 40.5t55 4t52.5 -45 q29 -49 56.5 -108.5t50.5 -108.5q14 -31 3 -59.5t-35 -43t-53.5 -8t-49.5 44.5q-20 37 -35 63t-26 48.5t-23.5 46t-28.5 60.5t-4 65.5z" />
<glyph unicode="&#xc9;" horiz-adv-x="587" d="M18.5 1550q20.5 39 69.5 59.5t116.5 24.5t133 -2t119 -19.5t73.5 -29.5q25 -25 27 -49.5t-12.5 -41.5t-40 -26.5t-55.5 -3.5q-74 4 -140.5 11.5t-136.5 -5.5v-320.5t2 -326.5q51 -2 95 7.5t91 13.5q23 4 44.5 -3.5t36 -22.5t16.5 -38.5t-17 -50.5q-47 -41 -120.5 -54.5 t-145.5 -8.5q4 -135 4 -258t-4 -256q78 2 160 14t151 41q37 8 59.5 -8.5t30 -42t-4 -54t-42.5 -45.5q-92 -35 -203.5 -48t-209.5 -9q-35 6 -65 27.5t-30 62.5q6 180 7.5 346t1.5 330t-1 333t-1 353q-29 61 -8.5 100zM142 1748.5q11 -28.5 35 -43t53.5 -8t49.5 44.5 q20 37 35 63t26 48.5t23.5 46t28.5 60.5t4 65.5t-37.5 40.5t-55 4t-52.5 -45q-29 -49 -56.5 -108.5t-50.5 -108.5q-14 -31 -3 -59.5z" />
<glyph unicode="&#xca;" horiz-adv-x="587" d="M15 1761.5q-5 31.5 20 62.5q35 41 91 95.5t99 95.5q14 14 36 22.5t45.5 8.5t47 -7.5t39.5 -25.5q49 -51 89 -98.5t81 -98.5q25 -33 20 -64.5t-28 -48t-56.5 -13.5t-64.5 40q-2 0 -30.5 38t-98.5 110q-41 -43 -75.5 -75t-73.5 -73q-29 -35 -61 -36t-53.5 17.5t-26.5 50z M18.5 1550q20.5 39 69.5 59.5t116.5 24.5t133 -2t119 -19.5t73.5 -29.5q25 -25 27 -49.5t-12.5 -41.5t-40 -26.5t-55.5 -3.5q-74 4 -140.5 11.5t-136.5 -5.5v-320.5t2 -326.5q51 -2 95 7.5t91 13.5q23 4 44.5 -3.5t36 -22.5t16.5 -38.5t-17 -50.5q-47 -41 -120.5 -54.5 t-145.5 -8.5q4 -135 4 -258t-4 -256q78 2 160 14t151 41q37 8 59.5 -8.5t30 -42t-4 -54t-42.5 -45.5q-92 -35 -203.5 -48t-209.5 -9q-35 6 -65 27.5t-30 62.5q6 180 7.5 346t1.5 330t-1 333t-1 353q-29 61 -8.5 100z" />
<glyph unicode="&#xcb;" horiz-adv-x="587" d="M18.5 1550q20.5 39 69.5 59.5t116.5 24.5t133 -2t119 -19.5t73.5 -29.5q25 -25 27 -49.5t-12.5 -41.5t-40 -26.5t-55.5 -3.5q-74 4 -140.5 11.5t-136.5 -5.5v-320.5t2 -326.5q51 -2 95 7.5t91 13.5q23 4 44.5 -3.5t36 -22.5t16.5 -38.5t-17 -50.5q-47 -41 -120.5 -54.5 t-145.5 -8.5q4 -135 4 -258t-4 -256q78 2 160 14t151 41q37 8 59.5 -8.5t30 -42t-4 -54t-42.5 -45.5q-92 -35 -203.5 -48t-209.5 -9q-35 6 -65 27.5t-30 62.5q6 180 7.5 346t1.5 330t-1 333t-1 353q-29 61 -8.5 100zM27.5 1820q9.5 39 38 61.5t70.5 26t79 -27.5 q35 -45 25.5 -90t-41 -72t-75.5 -27t-77 47q-29 43 -19.5 82zM271.5 1820q9.5 39 38 61.5t70.5 26t79 -27.5q35 -45 25.5 -90t-41 -72t-75.5 -27t-77 47q-29 43 -19.5 82z" />
<glyph unicode="&#xcc;" horiz-adv-x="483" d="M-56 1526.5q-3 23.5 11 47t47 38.5q14 6 53 10t89.5 6t105.5 3t104 0t87 -2t53 -3q37 -10 52 -34.5t11 -51.5t-24.5 -47t-53.5 -20h4q-41 0 -88 -2.5t-90 -4.5q-2 -322 0 -651.5t0 -652.5q41 2 82 3t80 -9q31 -6 46 -29t16 -48.5t-11 -48t-39 -28.5q-47 -4 -109.5 -5 t-129 0t-128 3t-104.5 6q-33 6 -47 29.5t-11 50.5t21.5 48.5t48.5 21.5h136q2 166 3 326.5t0 321.5t-2 324.5t-1 335.5h-51.5t-25.5 -1t-20.5 -2t-38.5 -3q-35 6 -54 25.5t-22 43zM101 2025.5q12 28.5 37.5 40.5t55 4t52.5 -45q29 -49 56.5 -108.5t50.5 -108.5 q14 -31 3 -59.5t-35 -43t-53.5 -8t-49.5 44.5q-20 37 -35 63t-26 48.5t-23.5 46t-28.5 60.5t-4 65.5z" />
<glyph unicode="&#xcd;" horiz-adv-x="483" d="M-56 1526.5q-3 23.5 11 47t47 38.5q14 6 53 10t89.5 6t105.5 3t104 0t87 -2t53 -3q37 -10 52 -34.5t11 -51.5t-24.5 -47t-53.5 -20h4q-41 0 -88 -2.5t-90 -4.5q-2 -322 0 -651.5t0 -652.5q41 2 82 3t80 -9q31 -6 46 -29t16 -48.5t-11 -48t-39 -28.5q-47 -4 -109.5 -5 t-129 0t-128 3t-104.5 6q-33 6 -47 29.5t-11 50.5t21.5 48.5t48.5 21.5h136q2 166 3 326.5t0 321.5t-2 324.5t-1 335.5h-51.5t-25.5 -1t-20.5 -2t-38.5 -3q-35 6 -54 25.5t-22 43zM97 1748.5q11 -28.5 35 -43t53.5 -8t49.5 44.5q20 37 35 63t26 48.5t23.5 46t28.5 60.5 t4 65.5t-37.5 40.5t-55 4t-52.5 -45q-29 -49 -56.5 -108.5t-50.5 -108.5q-14 -31 -3 -59.5z" />
<glyph unicode="&#xce;" horiz-adv-x="483" d="M-56 1526.5q-3 23.5 11 47t47 38.5q14 6 53 10t89.5 6t105.5 3t104 0t87 -2t53 -3q37 -10 52 -34.5t11 -51.5t-24.5 -47t-53.5 -20h4q-41 0 -88 -2.5t-90 -4.5q-2 -322 0 -651.5t0 -652.5q41 2 82 3t80 -9q31 -6 46 -29t16 -48.5t-11 -48t-39 -28.5q-47 -4 -109.5 -5 t-129 0t-128 3t-104.5 6q-33 6 -47 29.5t-11 50.5t21.5 48.5t48.5 21.5h136q2 166 3 326.5t0 321.5t-2 324.5t-1 335.5h-51.5t-25.5 -1t-20.5 -2t-38.5 -3q-35 6 -54 25.5t-22 43zM-51 1761.5q-5 31.5 20 62.5q35 41 91 95.5t99 95.5q14 14 36 22.5t45.5 8.5t47 -7.5 t39.5 -25.5q49 -51 89 -98.5t81 -98.5q25 -33 20 -64.5t-28 -48t-56.5 -13.5t-64.5 40q-2 0 -30.5 38t-98.5 110q-41 -43 -75.5 -75t-73.5 -73q-29 -35 -61 -36t-53.5 17.5t-26.5 50z" />
<glyph unicode="&#xcf;" horiz-adv-x="483" d="M-56 1526.5q-3 23.5 11 47t47 38.5q14 6 53 10t89.5 6t105.5 3t104 0t87 -2t53 -3q37 -10 52 -34.5t11 -51.5t-24.5 -47t-53.5 -20h4q-41 0 -88 -2.5t-90 -4.5q-2 -322 0 -651.5t0 -652.5q41 2 82 3t80 -9q31 -6 46 -29t16 -48.5t-11 -48t-39 -28.5q-47 -4 -109.5 -5 t-129 0t-128 3t-104.5 6q-33 6 -47 29.5t-11 50.5t21.5 48.5t48.5 21.5h136q2 166 3 326.5t0 321.5t-2 324.5t-1 335.5h-51.5t-25.5 -1t-20.5 -2t-38.5 -3q-35 6 -54 25.5t-22 43zM-1.5 1820q9.5 39 38 61.5t70.5 26t79 -27.5q35 -45 25.5 -90t-41 -72t-75.5 -27t-77 47 q-29 43 -19.5 82zM242.5 1820q9.5 39 38 61.5t70.5 26t79 -27.5q35 -45 25.5 -90t-41 -72t-75.5 -27t-77 47q-29 43 -19.5 82z" />
<glyph unicode="&#xd0;" horiz-adv-x="673" d="M-11 774.5q-1 24.5 13 47t45 32.5h365q35 0 50 -23.5t15 -52t-16.5 -52.5t-46.5 -26h-367q-27 8 -42 29t-16 45.5zM125 53q-2 424 3 790.5t5 712.5q-2 20 9.5 46t45.5 26q133 8 232.5 -49t166 -158.5t100.5 -235.5t37 -279.5t-25.5 -290t-87 -268.5t-147.5 -214 t-208 -127q-18 -6 -42 -6t-43 5t-32.5 16.5t-13.5 31.5zM276 188q86 49 147.5 136.5t97.5 195t48.5 227t2 233.5t-44 215t-91.5 171q-39 49 -82 79t-78 30q-2 -319 0.5 -641t-0.5 -646z" />
<glyph unicode="&#xd1;" horiz-adv-x="737" d="M43 53q4 193 5 377t1 367.5t-1 370.5t-1 388v11q0 27 15.5 45t38 24t48 -2t46.5 -35q49 -94 83.5 -193t65.5 -200q47 -139 90 -279.5t84 -285.5q4 61 6 144t3 174.5t2 183.5t0 174t-2 144.5t-3 94.5q2 45 30 63.5t58.5 15.5t55 -24.5t22.5 -54.5q-4 -188 -3 -374.5 t1 -371.5t-2 -372.5t-12 -376.5q-29 -55 -74 -58t-78 50q-41 119 -66.5 224.5t-60.5 228.5q-47 162 -95 322.5t-101 320.5l-4 18q0 -281 1 -559t1 -553q-8 -29 -30 -43t-45.5 -15t-46 12.5t-32.5 43.5zM80 1837q12 39 35.5 80t54.5 68.5t66.5 35.5t76.5 -14q23 -12 47.5 -39 t48 -47.5t47 -28.5t46.5 16q16 27 19 44.5t7 25.5q12 31 37 41t48.5 0t38 -40t3.5 -81q-10 -49 -37.5 -90t-67.5 -64.5t-88 -22.5t-95 36q-29 23 -54.5 49.5t-58.5 48.5q-23 -37 -33 -73.5t-51 -65.5q-66 -12 -89.5 24.5t-0.5 96.5z" />
<glyph unicode="&#xd2;" horiz-adv-x="808" d="M32 886q3 124 20.5 241.5t52 221t92 173t141.5 96.5t201 -10q72 -43 116.5 -119t69.5 -172t30 -207t-3.5 -223.5t-25.5 -219t-40 -194.5q-10 -43 -26.5 -99.5t-41 -114.5t-57.5 -111.5t-76 -90.5t-97 -52t-120 3q-43 12 -75.5 49t-56 83t-39 94.5t-23.5 82.5 q-10 47 -21.5 135.5t-17.5 199t-3 234.5zM180 863q-2 -81 1 -152.5t7 -122.5q2 -25 10.5 -85.5t23 -127t37 -126t52 -84t68.5 1.5t88 128q23 51 40 106.5t32 108.5q12 51 24 125t21.5 159t12.5 175t-3 173t-23.5 153.5t-50.5 115.5q-16 25 -42.5 42t-56.5 23.5t-60.5 -2 t-53.5 -34.5q-35 -41 -58.5 -106.5t-37.5 -142.5t-21.5 -162t-9.5 -166zM258 2025.5q12 28.5 37.5 40.5t55 4t52.5 -45q29 -49 56.5 -108.5t50.5 -108.5q14 -31 3 -59.5t-35 -43t-53.5 -8t-49.5 44.5q-20 37 -35 63t-26 48.5t-23.5 46t-28.5 60.5t-4 65.5z" />
<glyph unicode="&#xd3;" horiz-adv-x="808" d="M32 886q3 124 20.5 241.5t52 221t92 173t141.5 96.5t201 -10q72 -43 116.5 -119t69.5 -172t30 -207t-3.5 -223.5t-25.5 -219t-40 -194.5q-10 -43 -26.5 -99.5t-41 -114.5t-57.5 -111.5t-76 -90.5t-97 -52t-120 3q-43 12 -75.5 49t-56 83t-39 94.5t-23.5 82.5 q-10 47 -21.5 135.5t-17.5 199t-3 234.5zM180 863q-2 -81 1 -152.5t7 -122.5q2 -25 10.5 -85.5t23 -127t37 -126t52 -84t68.5 1.5t88 128q23 51 40 106.5t32 108.5q12 51 24 125t21.5 159t12.5 175t-3 173t-23.5 153.5t-50.5 115.5q-16 25 -42.5 42t-56.5 23.5t-60.5 -2 t-53.5 -34.5q-35 -41 -58.5 -106.5t-37.5 -142.5t-21.5 -162t-9.5 -166zM253 1748.5q11 -28.5 35 -43t53.5 -8t49.5 44.5q20 37 35 63t26 48.5t23.5 46t28.5 60.5t4 65.5t-37.5 40.5t-55 4t-52.5 -45q-29 -49 -56.5 -108.5t-50.5 -108.5q-14 -31 -3 -59.5z" />
<glyph unicode="&#xd4;" horiz-adv-x="808" d="M32 886q3 124 20.5 241.5t52 221t92 173t141.5 96.5t201 -10q72 -43 116.5 -119t69.5 -172t30 -207t-3.5 -223.5t-25.5 -219t-40 -194.5q-10 -43 -26.5 -99.5t-41 -114.5t-57.5 -111.5t-76 -90.5t-97 -52t-120 3q-43 12 -75.5 49t-56 83t-39 94.5t-23.5 82.5 q-10 47 -21.5 135.5t-17.5 199t-3 234.5zM126 1761.5q-5 31.5 20 62.5q35 41 91 95.5t99 95.5q14 14 36 22.5t45.5 8.5t47 -7.5t39.5 -25.5q49 -51 89 -98.5t81 -98.5q25 -33 20 -64.5t-28 -48t-56.5 -13.5t-64.5 40q-2 0 -30.5 38t-98.5 110q-41 -43 -75.5 -75t-73.5 -73 q-29 -35 -61 -36t-53.5 17.5t-26.5 50zM180 863q-2 -81 1 -152.5t7 -122.5q2 -25 10.5 -85.5t23 -127t37 -126t52 -84t68.5 1.5t88 128q23 51 40 106.5t32 108.5q12 51 24 125t21.5 159t12.5 175t-3 173t-23.5 153.5t-50.5 115.5q-16 25 -42.5 42t-56.5 23.5t-60.5 -2 t-53.5 -34.5q-35 -41 -58.5 -106.5t-37.5 -142.5t-21.5 -162t-9.5 -166z" />
<glyph unicode="&#xd5;" horiz-adv-x="808" d="M32 886q3 124 20.5 241.5t52 221t92 173t141.5 96.5t201 -10q72 -43 116.5 -119t69.5 -172t30 -207t-3.5 -223.5t-25.5 -219t-40 -194.5q-10 -43 -26.5 -99.5t-41 -114.5t-57.5 -111.5t-76 -90.5t-97 -52t-120 3q-43 12 -75.5 49t-56 83t-39 94.5t-23.5 82.5 q-10 47 -21.5 135.5t-17.5 199t-3 234.5zM123 1837q12 39 35.5 80t54.5 68.5t66.5 35.5t76.5 -14q23 -12 47.5 -39t48 -47.5t47 -28.5t46.5 16q16 27 19 44.5t7 25.5q12 31 37 41t48.5 0t38 -40t3.5 -81q-10 -49 -37.5 -90t-67.5 -64.5t-88 -22.5t-95 36q-29 23 -54.5 49.5 t-58.5 48.5q-23 -37 -33 -73.5t-51 -65.5q-66 -12 -89.5 24.5t-0.5 96.5zM180 863q-2 -81 1 -152.5t7 -122.5q2 -25 10.5 -85.5t23 -127t37 -126t52 -84t68.5 1.5t88 128q23 51 40 106.5t32 108.5q12 51 24 125t21.5 159t12.5 175t-3 173t-23.5 153.5t-50.5 115.5 q-16 25 -42.5 42t-56.5 23.5t-60.5 -2t-53.5 -34.5q-35 -41 -58.5 -106.5t-37.5 -142.5t-21.5 -162t-9.5 -166z" />
<glyph unicode="&#xd6;" horiz-adv-x="808" d="M32 886q3 124 20.5 241.5t52 221t92 173t141.5 96.5t201 -10q72 -43 116.5 -119t69.5 -172t30 -207t-3.5 -223.5t-25.5 -219t-40 -194.5q-10 -43 -26.5 -99.5t-41 -114.5t-57.5 -111.5t-76 -90.5t-97 -52t-120 3q-43 12 -75.5 49t-56 83t-39 94.5t-23.5 82.5 q-10 47 -21.5 135.5t-17.5 199t-3 234.5zM180 863q-2 -81 1 -152.5t7 -122.5q2 -25 10.5 -85.5t23 -127t37 -126t52 -84t68.5 1.5t88 128q23 51 40 106.5t32 108.5q12 51 24 125t21.5 159t12.5 175t-3 173t-23.5 153.5t-50.5 115.5q-16 25 -42.5 42t-56.5 23.5t-60.5 -2 t-53.5 -34.5q-35 -41 -58.5 -106.5t-37.5 -142.5t-21.5 -162t-9.5 -166zM183.5 1820q9.5 39 38 61.5t70.5 26t79 -27.5q35 -45 25.5 -90t-41 -72t-75.5 -27t-77 47q-29 43 -19.5 82zM427.5 1820q9.5 39 38 61.5t70.5 26t79 -27.5q35 -45 25.5 -90t-41 -72t-75.5 -27t-77 47 q-29 43 -19.5 82z" />
<glyph unicode="&#xd7;" horiz-adv-x="522" d="M20.5 501.5q-4.5 28.5 16.5 49.5q90 82 176 161.5t174 161.5q27 12 52.5 7.5t43 -21t21.5 -42t-12 -56.5q-55 -53 -98.5 -91t-81.5 -74t-77.5 -72t-91.5 -83q-27 -25 -54.5 -18.5t-45.5 28t-22.5 50zM40 840q5 24 22.5 41.5t43 21.5t56.5 -12q51 -57 90 -98t74.5 -79 t72.5 -78t84 -93q25 -25 18 -52.5t-28.5 -45t-50.5 -21.5t-51 16q-82 88 -162 174.5t-162 176.5q-12 25 -7 49z" />
<glyph unicode="&#xd8;" horiz-adv-x="808" d="M32 886q3 124 20.5 241.5t52 221t92 173t141.5 96.5t201 -10q72 -43 116.5 -119t69.5 -172t30 -207t-3.5 -223.5t-25.5 -219t-40 -194.5q-10 -43 -26.5 -99.5t-41 -114.5t-57.5 -111.5t-76 -90.5t-97 -52t-120 3q-43 12 -75.5 49t-56 83t-39 94.5t-23.5 82.5 q-10 47 -21.5 135.5t-17.5 199t-3 234.5zM87.5 47q-13.5 33 5.5 76q43 147 79.5 272t69.5 239t64.5 221.5t64.5 219t68 233.5t76 263q8 39 37.5 55t58 12t48 -26.5t9.5 -59.5q-66 -225 -114 -400t-95 -339t-99 -339t-122 -400q-23 -53 -54.5 -67.5t-57 -3.5t-39 44zM180 863 q-2 -81 1 -152.5t7 -122.5q2 -25 10.5 -85.5t23 -127t37 -126t52 -84t68.5 1.5t88 128q23 51 40 106.5t32 108.5q12 51 24 125t21.5 159t12.5 175t-3 173t-23.5 153.5t-50.5 115.5q-16 25 -42.5 42t-56.5 23.5t-60.5 -2t-53.5 -34.5q-35 -41 -58.5 -106.5t-37.5 -142.5 t-21.5 -162t-9.5 -166z" />
<glyph unicode="&#xd9;" horiz-adv-x="679" d="M20 1038v152q0 8 2.5 60.5t5.5 117t8 122t9 73.5q-2 27 21.5 46t53.5 23t55.5 -13t29.5 -65l-15 -204q-14 -213 -12 -428t29 -428q2 -14 8 -62.5t17.5 -104t31 -101.5t47.5 -56q14 -6 41 17.5t52.5 60.5t47 78t25.5 69q16 117 19.5 263.5t1.5 302t-4 308t8 279.5q0 4 1 5 t1 3q2 37 21.5 55.5t44 18.5t47 -16.5t30.5 -50.5q6 -168 3 -351.5t-9 -371t-9 -371.5t7 -352q0 -55 -22.5 -85t-50 -30t-52.5 34t-27 109q-29 -51 -67.5 -88t-82.5 -49t-89 5.5t-86 74.5q-39 55 -64.5 141t-41 188.5t-23.5 213t-10.5 214t-2.5 193.5zM213 2025.5 q12 28.5 37.5 40.5t55 4t52.5 -45q29 -49 56.5 -108.5t50.5 -108.5q14 -31 3 -59.5t-35 -43t-53.5 -8t-49.5 44.5q-20 37 -35 63t-26 48.5t-23.5 46t-28.5 60.5t-4 65.5z" />
<glyph unicode="&#xda;" horiz-adv-x="679" d="M20 1038v152q0 8 2.5 60.5t5.5 117t8 122t9 73.5q-2 27 21.5 46t53.5 23t55.5 -13t29.5 -65l-15 -204q-14 -213 -12 -428t29 -428q2 -14 8 -62.5t17.5 -104t31 -101.5t47.5 -56q14 -6 41 17.5t52.5 60.5t47 78t25.5 69q16 117 19.5 263.5t1.5 302t-4 308t8 279.5q0 4 1 5 t1 3q2 37 21.5 55.5t44 18.5t47 -16.5t30.5 -50.5q6 -168 3 -351.5t-9 -371t-9 -371.5t7 -352q0 -55 -22.5 -85t-50 -30t-52.5 34t-27 109q-29 -51 -67.5 -88t-82.5 -49t-89 5.5t-86 74.5q-39 55 -64.5 141t-41 188.5t-23.5 213t-10.5 214t-2.5 193.5zM208 1748.5 q11 -28.5 35 -43t53.5 -8t49.5 44.5q20 37 35 63t26 48.5t23.5 46t28.5 60.5t4 65.5t-37.5 40.5t-55 4t-52.5 -45q-29 -49 -56.5 -108.5t-50.5 -108.5q-14 -31 -3 -59.5z" />
<glyph unicode="&#xdb;" horiz-adv-x="679" d="M20 1038v152q0 8 2.5 60.5t5.5 117t8 122t9 73.5q-2 27 21.5 46t53.5 23t55.5 -13t29.5 -65l-15 -204q-14 -213 -12 -428t29 -428q2 -14 8 -62.5t17.5 -104t31 -101.5t47.5 -56q14 -6 41 17.5t52.5 60.5t47 78t25.5 69q16 117 19.5 263.5t1.5 302t-4 308t8 279.5q0 4 1 5 t1 3q2 37 21.5 55.5t44 18.5t47 -16.5t30.5 -50.5q6 -168 3 -351.5t-9 -371t-9 -371.5t7 -352q0 -55 -22.5 -85t-50 -30t-52.5 34t-27 109q-29 -51 -67.5 -88t-82.5 -49t-89 5.5t-86 74.5q-39 55 -64.5 141t-41 188.5t-23.5 213t-10.5 214t-2.5 193.5zM35 1761.5 q-5 31.5 20 62.5q35 41 91 95.5t99 95.5q14 14 36 22.5t45.5 8.5t47 -7.5t39.5 -25.5q49 -51 89 -98.5t81 -98.5q25 -33 20 -64.5t-28 -48t-56.5 -13.5t-64.5 40q-2 0 -30.5 38t-98.5 110q-41 -43 -75.5 -75t-73.5 -73q-29 -35 -61 -36t-53.5 17.5t-26.5 50z" />
<glyph unicode="&#xdc;" horiz-adv-x="679" d="M20 1038v152q0 8 2.5 60.5t5.5 117t8 122t9 73.5q-2 27 21.5 46t53.5 23t55.5 -13t29.5 -65l-15 -204q-14 -213 -12 -428t29 -428q2 -14 8 -62.5t17.5 -104t31 -101.5t47.5 -56q14 -6 41 17.5t52.5 60.5t47 78t25.5 69q16 117 19.5 263.5t1.5 302t-4 308t8 279.5q0 4 1 5 t1 3q2 37 21.5 55.5t44 18.5t47 -16.5t30.5 -50.5q6 -168 3 -351.5t-9 -371t-9 -371.5t7 -352q0 -55 -22.5 -85t-50 -30t-52.5 34t-27 109q-29 -51 -67.5 -88t-82.5 -49t-89 5.5t-86 74.5q-39 55 -64.5 141t-41 188.5t-23.5 213t-10.5 214t-2.5 193.5zM115.5 1820 q9.5 39 38 61.5t70.5 26t79 -27.5q35 -45 25.5 -90t-41 -72t-75.5 -27t-77 47q-29 43 -19.5 82zM359.5 1820q9.5 39 38 61.5t70.5 26t79 -27.5q35 -45 25.5 -90t-41 -72t-75.5 -27t-77 47q-29 43 -19.5 82z" />
<glyph unicode="&#xdd;" horiz-adv-x="716" d="M2 1563q6 33 27.5 52t46 20t47 -14t33.5 -50q10 -115 34.5 -228.5t67.5 -224.5q33 66 61.5 126.5t62.5 119.5t74 117.5t95 117.5q31 27 59.5 31t49 -8t27.5 -37.5t-5 -58.5q-76 -106 -151.5 -234.5t-135.5 -251.5q-8 -16 -21.5 -49t-25.5 -69.5t-21.5 -70.5t-9.5 -48 q0 -139 2.5 -243.5t4.5 -189.5t1 -158t-8 -146q-8 -33 -28.5 -49.5t-44 -17.5t-44 15.5t-30.5 51.5q0 205 1 408.5t-1 412.5q-31 57 -59.5 150t-51 191.5t-39 190t-18.5 144.5zM208 1748.5q11 -28.5 35 -43t53.5 -8t49.5 44.5q20 37 35 63t26 48.5t23.5 46t28.5 60.5t4 65.5 t-37.5 40.5t-55 4t-52.5 -45q-29 -49 -56.5 -108.5t-50.5 -108.5q-14 -31 -3 -59.5z" />
<glyph unicode="&#xde;" horiz-adv-x="794" d="M29 115v268.5v225t1 204.5t1 206.5t1 232.5t3 282q0 45 23.5 69.5t53 25.5t53 -23.5t23.5 -77.5v-350q57 2 114.5 5t115 -1t112 -17.5t107.5 -42.5q51 -31 82 -88t40 -123.5t-1 -132t-39 -110.5q-37 -68 -97.5 -108t-132 -61.5t-151.5 -28.5t-156 -11v-344 q0 -59 -23.5 -88t-53 -28t-53 30.5t-23.5 85.5zM182 614q90 2 179.5 13.5t153 46.5t88 101.5t-14.5 180.5q-20 39 -67.5 56.5t-105 21.5t-119 -1t-110.5 -9v-211t-4 -199z" />
<glyph unicode="&#xdf;" horiz-adv-x="821" d="M34 1043.5q-1 113.5 9 230.5t40 221t91 166q59 59 154.5 95t187.5 32t165 -60.5t89 -181.5q10 -90 -22.5 -172t-77.5 -160.5t-85 -157.5t-44 -165q0 -47 25.5 -98.5t60.5 -102.5t71.5 -100t57.5 -94q47 -98 22.5 -187.5t-90 -157t-159 -109.5t-181.5 -44 q-35 4 -54.5 23.5t-22.5 44t12.5 49t48.5 37.5q51 2 110.5 21.5t105.5 55t67.5 87t-3.5 116.5q-29 74 -78 140.5t-88.5 135t-56 144.5t22.5 170q18 45 54 110.5t71.5 136t59.5 138.5t15 115q-12 66 -51 94.5t-88 29.5t-98 -23t-78 -60q-37 -43 -56.5 -103.5t-30.5 -126 t-15.5 -131t-6.5 -121.5q-12 -252 1.5 -503t17.5 -515q0 -41 -22.5 -61t-50.5 -21t-52.5 18t-28.5 58q-2 106 -5 204.5t-6 194t-5 192.5t-2 204q0 78 -1 191.5z" />
<glyph unicode="&#xe0;" horiz-adv-x="403" d="M20 61q10 268 37 534.5t62 530.5q4 18 19.5 30.5t33.5 15t35.5 -8t23.5 -37.5q37 -270 76 -525t74 -529q2 -29 -8.5 -47.5t-25.5 -23.5t-31.5 5t-24.5 41q-10 102 -23.5 186t-27.5 183q-23 4 -51.5 0.5t-59.5 -23.5q-8 -86 -11 -171t-3 -169q-6 -29 -20.5 -42t-30 -11 t-28.5 17.5t-16 43.5zM70.5 1343q7.5 20 23.5 28t34 2.5t32 -30.5q18 -34 35 -74.5t32 -74.5q8 -21 1.5 -40.5t-21.5 -29.5t-33.5 -5.5t-30.5 30.5q-12 25 -21.5 43t-16 33.5t-14.5 31.5t-18 41t-2.5 45zM143 520q20 4 40 6t42 2q-12 72 -22 144.5t-21 146.5l-4 43 q-4 -20 -5 -40.5t-3 -39.5z" />
<glyph unicode="&#xe1;" horiz-adv-x="403" d="M-7.5 1153.5q6.5 -19.5 21.5 -29.5t33.5 -5.5t30.5 30.5q12 25 21.5 43t16 33.5t14.5 31.5t18 41t2.5 45t-23.5 28t-34 2.5t-32 -30.5q-18 -34 -35 -74.5t-32 -74.5q-8 -21 -1.5 -40.5zM20 61q10 268 37 534.5t62 530.5q4 18 19.5 30.5t33.5 15t35.5 -8t23.5 -37.5 q37 -270 76 -525t74 -529q2 -29 -8.5 -47.5t-25.5 -23.5t-31.5 5t-24.5 41q-10 102 -23.5 186t-27.5 183q-23 4 -51.5 0.5t-59.5 -23.5q-8 -86 -11 -171t-3 -169q-6 -29 -20.5 -42t-30 -11t-28.5 17.5t-16 43.5zM143 520q20 4 40 6t42 2q-12 72 -22 144.5t-21 146.5l-4 43 q-4 -20 -5 -40.5t-3 -39.5z" />
<glyph unicode="&#xe2;" horiz-adv-x="403" d="M3.5 1095.5q-3.5 19.5 12.5 38.5q22 25 57 59t62 59q9 9 23 14t28.5 5t29.5 -4.5t25 -15.5q31 -32 56 -61t51 -61q15 -20 12 -39.5t-17.5 -29.5t-35.5 -8.5t-40 24.5q-2 0 -19.5 23.5t-61.5 67.5q-26 -26 -47.5 -46t-46.5 -45q-18 -21 -38 -22t-33.5 10.5t-17 31zM20 61 q10 268 37 534.5t62 530.5q4 18 19.5 30.5t33.5 15t35.5 -8t23.5 -37.5q37 -270 76 -525t74 -529q2 -29 -8.5 -47.5t-25.5 -23.5t-31.5 5t-24.5 41q-10 102 -23.5 186t-27.5 183q-23 4 -51.5 0.5t-59.5 -23.5q-8 -86 -11 -171t-3 -169q-6 -29 -20.5 -42t-30 -11t-28.5 17.5 t-16 43.5zM143 520q20 4 40 6t42 2q-12 72 -22 144.5t-21 146.5l-4 43q-4 -20 -5 -40.5t-3 -39.5z" />
<glyph unicode="&#xe3;" horiz-adv-x="403" d="M6 1171q8 25 22.5 51t34.5 43.5t42.5 23t48.5 -8.5q14 -8 29.5 -25.5t30.5 -30.5t30 -18t29 10q10 18 12 29t5 16q7 20 23 26.5t31 0t24 -25.5t2 -52q-6 -31 -23.5 -57t-43 -41t-55.5 -14.5t-60 22.5q-19 15 -35 32t-37 31q-14 -24 -20.5 -47t-32.5 -42 q-42 -8 -56.5 15.5t-0.5 61.5zM20 61q10 268 37 534.5t62 530.5q4 18 19.5 30.5t33.5 15t35.5 -8t23.5 -37.5q37 -270 76 -525t74 -529q2 -29 -8.5 -47.5t-25.5 -23.5t-31.5 5t-24.5 41q-10 102 -23.5 186t-27.5 183q-23 4 -51.5 0.5t-59.5 -23.5q-8 -86 -11 -171t-3 -169 q-6 -29 -20.5 -42t-30 -11t-28.5 17.5t-16 43.5zM143 520q20 4 40 6t42 2q-12 72 -22 144.5t-21 146.5l-4 43q-4 -20 -5 -40.5t-3 -39.5z" />
<glyph unicode="&#xe4;" horiz-adv-x="403" d="M20 61q10 268 37 534.5t62 530.5q4 18 19.5 30.5t33.5 15t35.5 -8t23.5 -37.5q37 -270 76 -525t74 -529q2 -29 -8.5 -47.5t-25.5 -23.5t-31.5 5t-24.5 41q-10 102 -23.5 186t-27.5 183q-23 4 -51.5 0.5t-59.5 -23.5q-8 -86 -11 -171t-3 -169q-6 -29 -20.5 -42t-30 -11 t-28.5 17.5t-16 43.5zM23 1093q6 23 24.5 36t46 15t51.5 -16q23 -26 17 -52.5t-26.5 -42.5t-49.5 -16t-50 28q-19 25 -13 48zM143 520q20 4 40 6t42 2q-12 72 -22 144.5t-21 146.5l-4 43q-4 -20 -5 -40.5t-3 -39.5zM182 1093q6 23 25 36t46 15t52 -16q22 -26 16 -52.5 t-26.5 -42.5t-49.5 -16t-50 28q-19 25 -13 48z" />
<glyph unicode="&#xe5;" horiz-adv-x="403" d="M20 61q10 268 37 534.5t62 530.5q4 18 19.5 30.5t33.5 15t35.5 -8t23.5 -37.5q37 -270 76 -525t74 -529q2 -29 -8.5 -47.5t-25.5 -23.5t-31.5 5t-24.5 41q-10 102 -23.5 186t-27.5 183q-23 4 -51.5 0.5t-59.5 -23.5q-8 -86 -11 -171t-3 -169q-6 -29 -20.5 -42t-30 -11 t-28.5 17.5t-16 43.5zM39.5 1099.5q-1.5 29.5 8.5 55.5t34 44.5t64 22.5q34 -2 59.5 -19t40 -42.5t16.5 -54t-9.5 -53t-37 -42t-66.5 -20.5q-32 -2 -56 14t-38 40.5t-15.5 54zM123 1103q0 -10 5.5 -19t17.5 -9q18 -1 25 8t6 20t-9 20t-22 8q-12 0 -17.5 -9t-5.5 -19z M143 520q20 4 40 6t42 2q-12 72 -22 144.5t-21 146.5l-4 43q-4 -20 -5 -40.5t-3 -39.5z" />
<glyph unicode="&#xe6;" horiz-adv-x="653" d="M20 63q10 268 38 535.5t69 534.5q2 18 18.5 30.5t36 14.5t38 -8.5t24.5 -36.5l47 -299v217q-18 45 -6 72.5t42.5 42t73.5 17.5t85 -2t76 -15.5t46 -20.5q29 -37 9.5 -67.5t-60.5 -22.5q-47 4 -89 10t-83 -2v-467q31 -2 59.5 3t57.5 5q29 8 50 -13.5t-1 -62.5 q-29 -33 -76 -41t-90 -4v-374q49 2 100.5 11t96.5 30q23 6 37 -5.5t18 -31t-3 -41t-26 -33.5q-59 -25 -128.5 -35t-135.5 -6q-20 4 -38.5 20.5t-18.5 44.5q0 33 1 62t1 57q-10 59 -18.5 115.5t-18.5 122.5q-27 2 -54.5 -1t-62.5 -26q-6 -86 -11 -170t-7 -170 q-4 -29 -19.5 -42t-32 -11t-29.5 18.5t-16 44.5zM150 522q23 6 43 8t43 2q-12 68 -21.5 143t-19.5 146l-9 43q0 -23 -2 -42t-4 -40z" />
<glyph unicode="&#xe7;" horiz-adv-x="425" d="M18.5 573.5q2.5 122.5 16.5 233.5q10 123 32.5 215t73.5 139q66 47 115 24.5t82 -78.5t48 -127t15 -120q0 -25 -14 -42t-30.5 -22t-33 4t-18.5 36q-6 25 -12 68.5t-18.5 84.5t-30 66.5t-43.5 11.5q-18 -18 -31 -68q-35 -166 -40 -303t-1 -272q0 -10 3 -55t10.5 -96.5 t18.5 -95.5t29 -54q27 -16 44.5 8.5t29.5 65.5t18.5 85t12.5 68q2 27 17.5 36t32.5 5t30.5 -21.5t13.5 -43.5q-4 -33 -12 -76t-23.5 -86t-36 -82t-48 -61.5t-62.5 -23.5t-78 30q-41 33 -65.5 117.5t-36 195.5t-9 233.5zM50 -177.5q0 13.5 8 22t24.5 9.5t44.5 -9 q4 -1 13.5 -4.5t20.5 -7.5t20 -7t16 -3q-15 24 -31 45t-33 42q-6 7 -8 19.5t-2 26.5t1 27t1 22q0 29 15.5 45t35.5 16.5t36 -14.5t16 -46q0 -8 -1 -17.5t-4 -24.5q16 -21 33.5 -43.5t31.5 -46.5t20 -50.5t-1 -54.5q-9 -36 -45 -46.5t-77.5 -3t-79 29t-51.5 49.5 q-4 11 -4 24.5z" />
<glyph unicode="&#xe8;" horiz-adv-x="419" d="M32 1117q13 28 45 42.5t75 17.5t85 -2.5t76.5 -14.5t46.5 -21q31 -41 8.5 -68t-61.5 -18q-47 2 -89 7t-89 -5v-228.5t4 -234.5q31 0 60.5 6t58.5 6q29 10 49.5 -14.5t3.5 -65.5q-29 -29 -77 -39t-95 -6q2 -98 2 -185t-2 -185q49 2 101.5 11t99.5 30l-2 -5q23 2 37 -9 t18 -27.5t-2 -35t-25 -30.5q-59 -27 -130.5 -37t-137.5 -6q-23 4 -37 21.5t-20 39.5q2 129 3 249t1 239t-1 240.5t-1 254.5q-18 45 -5 73zM70.5 1343q7.5 20 23.5 28t34 2.5t32 -30.5q18 -34 35 -74.5t32 -74.5q8 -21 1.5 -40.5t-21.5 -29.5t-33.5 -5.5t-30.5 30.5 q-12 25 -21.5 43t-16 33.5t-14.5 31.5t-18 41t-2.5 45z" />
<glyph unicode="&#xe9;" horiz-adv-x="419" d="M5.5 1153.5q6.5 -19.5 21.5 -29.5t33.5 -5.5t30.5 30.5q12 25 21.5 43t16 33.5t14.5 31.5t18 41t2.5 45t-23.5 28t-34 2.5t-32 -30.5q-18 -34 -35 -74.5t-32 -74.5q-8 -21 -1.5 -40.5zM32 1117q13 28 45 42.5t75 17.5t85 -2.5t76.5 -14.5t46.5 -21q31 -41 8.5 -68 t-61.5 -18q-47 2 -89 7t-89 -5v-228.5t4 -234.5q31 0 60.5 6t58.5 6q29 10 49.5 -14.5t3.5 -65.5q-29 -29 -77 -39t-95 -6q2 -98 2 -185t-2 -185q49 2 101.5 11t99.5 30l-2 -5q23 2 37 -9t18 -27.5t-2 -35t-25 -30.5q-59 -27 -130.5 -37t-137.5 -6q-23 4 -37 21.5t-20 39.5 q2 129 3 249t1 239t-1 240.5t-1 254.5q-18 45 -5 73z" />
<glyph unicode="&#xea;" horiz-adv-x="419" d="M15.5 1095.5q-3.5 19.5 12.5 38.5q22 25 57 59t62 59q9 9 23 14t28.5 5t29.5 -4.5t25 -15.5q31 -32 56 -61t51 -61q15 -20 12 -39.5t-17.5 -29.5t-35.5 -8.5t-40 24.5q-2 0 -19.5 23.5t-61.5 67.5q-26 -26 -47.5 -46t-46.5 -45q-18 -21 -38 -22t-33.5 10.5t-17 31z M32 1117q13 28 45 42.5t75 17.5t85 -2.5t76.5 -14.5t46.5 -21q31 -41 8.5 -68t-61.5 -18q-47 2 -89 7t-89 -5v-228.5t4 -234.5q31 0 60.5 6t58.5 6q29 10 49.5 -14.5t3.5 -65.5q-29 -29 -77 -39t-95 -6q2 -98 2 -185t-2 -185q49 2 101.5 11t99.5 30l-2 -5q23 2 37 -9 t18 -27.5t-2 -35t-25 -30.5q-59 -27 -130.5 -37t-137.5 -6q-23 4 -37 21.5t-20 39.5q2 129 3 249t1 239t-1 240.5t-1 254.5q-18 45 -5 73z" />
<glyph unicode="&#xeb;" horiz-adv-x="419" d="M32 1117q13 28 45 42.5t75 17.5t85 -2.5t76.5 -14.5t46.5 -21q31 -41 8.5 -68t-61.5 -18q-47 2 -89 7t-89 -5v-228.5t4 -234.5q31 0 60.5 6t58.5 6q29 10 49.5 -14.5t3.5 -65.5q-29 -29 -77 -39t-95 -6q2 -98 2 -185t-2 -185q49 2 101.5 11t99.5 30l-2 -5q23 2 37 -9 t18 -27.5t-2 -35t-25 -30.5q-59 -27 -130.5 -37t-137.5 -6q-23 4 -37 21.5t-20 39.5q2 129 3 249t1 239t-1 240.5t-1 254.5q-18 45 -5 73zM42 1093q6 23 24.5 36t46 15t51.5 -16q23 -26 17 -52.5t-26.5 -42.5t-49.5 -16t-50 28q-19 25 -13 48zM201 1093q6 23 25 36t46 15 t52 -16q22 -26 16 -52.5t-26.5 -42.5t-49.5 -16t-50 28q-19 25 -13 48z" />
<glyph unicode="&#xec;" horiz-adv-x="452" d="M18 1104.5q-2 17.5 7.5 35t31.5 27.5q14 6 62.5 10.5t104 4.5t103.5 -1t62 -3q25 -6 36 -24.5t9 -37t-16.5 -34t-36.5 -15.5q-25 0 -56.5 -2t-62.5 -2q-2 -233 0 -473t2 -473h56.5t54.5 -2q20 -6 30.5 -23.5t11.5 -36t-8.5 -35t-27.5 -20.5q-31 -4 -75 -5t-88 -1t-86 2 t-71 4q-23 4 -32 22.5t-7.5 38t13.5 36t35 18.5q4 0 16 -1t26.5 -1h29t20.5 2q4 240 2 467t-2 479h-35t-17.5 -1t-14.5 -2t-25 -3q-23 4 -36.5 18t-15.5 31.5zM89.5 1343q7.5 20 23.5 28t34 2.5t32 -30.5q18 -34 35 -74.5t32 -74.5q8 -21 1.5 -40.5t-21.5 -29.5t-33.5 -5.5 t-30.5 30.5q-12 25 -21.5 43t-16 33.5t-14.5 31.5t-18 41t-2.5 45z" />
<glyph unicode="&#xed;" horiz-adv-x="452" d="M13.5 1153.5q6.5 -19.5 21.5 -29.5t33.5 -5.5t30.5 30.5q12 25 21.5 43t16 33.5t14.5 31.5t18 41t2.5 45t-23.5 28t-34 2.5t-32 -30.5q-18 -34 -35 -74.5t-32 -74.5q-8 -21 -1.5 -40.5zM18 1104.5q-2 17.5 7.5 35t31.5 27.5q14 6 62.5 10.5t104 4.5t103.5 -1t62 -3 q25 -6 36 -24.5t9 -37t-16.5 -34t-36.5 -15.5q-25 0 -56.5 -2t-62.5 -2q-2 -233 0 -473t2 -473h56.5t54.5 -2q20 -6 30.5 -23.5t11.5 -36t-8.5 -35t-27.5 -20.5q-31 -4 -75 -5t-88 -1t-86 2t-71 4q-23 4 -32 22.5t-7.5 38t13.5 36t35 18.5q4 0 16 -1t26.5 -1h29t20.5 2 q4 240 2 467t-2 479h-35t-17.5 -1t-14.5 -2t-25 -3q-23 4 -36.5 18t-15.5 31.5z" />
<glyph unicode="&#xee;" horiz-adv-x="452" d="M18 1104.5q-2 17.5 7.5 35t31.5 27.5q14 6 62.5 10.5t104 4.5t103.5 -1t62 -3q25 -6 36 -24.5t9 -37t-16.5 -34t-36.5 -15.5q-25 0 -56.5 -2t-62.5 -2q-2 -233 0 -473t2 -473h56.5t54.5 -2q20 -6 30.5 -23.5t11.5 -36t-8.5 -35t-27.5 -20.5q-31 -4 -75 -5t-88 -1t-86 2 t-71 4q-23 4 -32 22.5t-7.5 38t13.5 36t35 18.5q4 0 16 -1t26.5 -1h29t20.5 2q4 240 2 467t-2 479h-35t-17.5 -1t-14.5 -2t-25 -3q-23 4 -36.5 18t-15.5 31.5zM27.5 1095.5q-3.5 19.5 12.5 38.5q22 25 57 59t62 59q9 9 23 14t28.5 5t29.5 -4.5t25 -15.5q31 -32 56 -61 t51 -61q15 -20 12 -39.5t-17.5 -29.5t-35.5 -8.5t-40 24.5q-2 0 -19.5 23.5t-61.5 67.5q-26 -26 -47.5 -46t-46.5 -45q-18 -21 -38 -22t-33.5 10.5t-17 31z" />
<glyph unicode="&#xef;" horiz-adv-x="452" d="M18 1104.5q-2 17.5 7.5 35t31.5 27.5q14 6 62.5 10.5t104 4.5t103.5 -1t62 -3q25 -6 36 -24.5t9 -37t-16.5 -34t-36.5 -15.5q-25 0 -56.5 -2t-62.5 -2q-2 -233 0 -473t2 -473h56.5t54.5 -2q20 -6 30.5 -23.5t11.5 -36t-8.5 -35t-27.5 -20.5q-31 -4 -75 -5t-88 -1t-86 2 t-71 4q-23 4 -32 22.5t-7.5 38t13.5 36t35 18.5q4 0 16 -1t26.5 -1h29t20.5 2q4 240 2 467t-2 479h-35t-17.5 -1t-14.5 -2t-25 -3q-23 4 -36.5 18t-15.5 31.5zM49 1093q6 23 24.5 36t46 15t51.5 -16q23 -26 17 -52.5t-26.5 -42.5t-49.5 -16t-50 28q-19 25 -13 48zM208 1093 q6 23 25 36t46 15t52 -16q22 -26 16 -52.5t-26.5 -42.5t-49.5 -16t-50 28q-19 25 -13 48z" />
<glyph unicode="&#xf0;" horiz-adv-x="774" d="M43 422q4 82 26.5 161t65.5 144.5t109.5 113.5t156.5 70q-23 25 -44 48.5t-44 44.5l-82 -80q-18 -12 -35.5 -10.5t-27.5 13t-13 30t7 38.5l69 74l-34 18q-35 14 -42.5 38t7.5 46q27 27 65.5 12.5t79.5 -44.5l41 32q27 23 47.5 20t29.5 -18.5t7 -39t-20 -39.5l-25 -25 q33 -33 58.5 -61.5t37.5 -42.5q45 -53 90 -124t80 -151t58.5 -164t23.5 -163.5t-24.5 -150.5t-83.5 -124q-57 -51 -126 -71.5t-136.5 -14.5t-130 39t-107.5 86t-68.5 128t-15.5 167zM143.5 333q10.5 -81 53.5 -145.5t125 -87.5q109 -18 176 10.5t100 88t35 140.5t-17.5 166 t-58.5 166t-88 140q-78 6 -142.5 -38t-108.5 -114.5t-64.5 -157.5t-10 -168z" />
<glyph unicode="&#xf1;" horiz-adv-x="479" d="M39 35q2 139 3 272t1 266.5v269.5v281v2q0 2 2 4q0 20 9 34t22.5 18t29 -3.5t27.5 -25.5q29 -66 50.5 -137.5t41.5 -145.5q29 -100 55.5 -202.5t53.5 -206.5q2 68 4 166t3 196.5t0 181t-1 119.5q0 33 16.5 46.5t35 10.5t33.5 -18.5t15 -38.5q-6 -274 -2 -540.5t-8 -540.5 q-18 -41 -46 -44t-50 36q-23 88 -38 162.5t-38 164.5q-29 119 -58.5 235t-62.5 232l-4 13q0 -201 1 -402.5t-1 -402.5q-4 -20 -16.5 -30.5t-27.5 -11.5t-29.5 9t-20.5 31zM49 1171q8 25 22.5 51t34.5 43.5t42.5 23t48.5 -8.5q14 -8 29.5 -25.5t30.5 -30.5t30 -18t29 10 q10 18 12 29t5 16q7 20 23 26.5t31 0t24 -25.5t2 -52q-6 -31 -23.5 -57t-43 -41t-55.5 -14.5t-60 22.5q-19 15 -35 32t-37 31q-14 -24 -20.5 -47t-32.5 -42q-42 -8 -56.5 15.5t-0.5 61.5z" />
<glyph unicode="&#xf2;" horiz-adv-x="532" d="M39 581.5q0 116.5 13.5 236.5t48 209t97 132t160.5 8q45 -31 74 -86t44.5 -124.5t18.5 -150.5t-1.5 -163t-15.5 -159.5t-25 -143.5q-10 -47 -28.5 -114.5t-50.5 -124t-77 -90.5t-109 -13q-27 10 -47 36.5t-35.5 60.5t-24.5 69t-15 61q-8 45 -17.5 142.5t-9.5 214z M126.5 1343q7.5 20 23.5 28t34 2.5t32 -30.5q18 -34 35 -74.5t32 -74.5q8 -21 1.5 -40.5t-21.5 -29.5t-33.5 -5.5t-30.5 30.5q-12 25 -21.5 43t-16 33.5t-14.5 31.5t-18 41t-2.5 45zM132 568q1 -87 5 -144q2 -18 7.5 -62.5t14.5 -93.5t22.5 -92t32.5 -60.5t44 1t55 92.5 q16 39 26.5 78t18.5 80q12 55 23.5 146t14.5 188.5t-7 185.5t-41 139q-12 16 -28.5 28.5t-36 16.5t-38 -1t-32.5 -26q-33 -45 -50.5 -125.5t-24.5 -172t-6 -178.5z" />
<glyph unicode="&#xf3;" horiz-adv-x="532" d="M39 581.5q0 116.5 13.5 236.5t48 209t97 132t160.5 8q45 -31 74 -86t44.5 -124.5t18.5 -150.5t-1.5 -163t-15.5 -159.5t-25 -143.5q-10 -47 -28.5 -114.5t-50.5 -124t-77 -90.5t-109 -13q-27 10 -47 36.5t-35.5 60.5t-24.5 69t-15 61q-8 45 -17.5 142.5t-9.5 214z M47.5 1153.5q6.5 -19.5 21.5 -29.5t33.5 -5.5t30.5 30.5q12 25 21.5 43t16 33.5t14.5 31.5t18 41t2.5 45t-23.5 28t-34 2.5t-32 -30.5q-18 -34 -35 -74.5t-32 -74.5q-8 -21 -1.5 -40.5zM132 568q1 -87 5 -144q2 -18 7.5 -62.5t14.5 -93.5t22.5 -92t32.5 -60.5t44 1t55 92.5 q16 39 26.5 78t18.5 80q12 55 23.5 146t14.5 188.5t-7 185.5t-41 139q-12 16 -28.5 28.5t-36 16.5t-38 -1t-32.5 -26q-33 -45 -50.5 -125.5t-24.5 -172t-6 -178.5z" />
<glyph unicode="&#xf4;" horiz-adv-x="532" d="M39 581.5q0 116.5 13.5 236.5t48 209t97 132t160.5 8q45 -31 74 -86t44.5 -124.5t18.5 -150.5t-1.5 -163t-15.5 -159.5t-25 -143.5q-10 -47 -28.5 -114.5t-50.5 -124t-77 -90.5t-109 -13q-27 10 -47 36.5t-35.5 60.5t-24.5 69t-15 61q-8 45 -17.5 142.5t-9.5 214z M58.5 1095.5q-3.5 19.5 12.5 38.5q22 25 57 59t62 59q9 9 23 14t28.5 5t29.5 -4.5t25 -15.5q31 -32 56 -61t51 -61q15 -20 12 -39.5t-17.5 -29.5t-35.5 -8.5t-40 24.5q-2 0 -19.5 23.5t-61.5 67.5q-26 -26 -47.5 -46t-46.5 -45q-18 -21 -38 -22t-33.5 10.5t-17 31zM132 568 q1 -87 5 -144q2 -18 7.5 -62.5t14.5 -93.5t22.5 -92t32.5 -60.5t44 1t55 92.5q16 39 26.5 78t18.5 80q12 55 23.5 146t14.5 188.5t-7 185.5t-41 139q-12 16 -28.5 28.5t-36 16.5t-38 -1t-32.5 -26q-33 -45 -50.5 -125.5t-24.5 -172t-6 -178.5z" />
<glyph unicode="&#xf5;" horiz-adv-x="532" d="M39 581.5q0 116.5 13.5 236.5t48 209t97 132t160.5 8q45 -31 74 -86t44.5 -124.5t18.5 -150.5t-1.5 -163t-15.5 -159.5t-25 -143.5q-10 -47 -28.5 -114.5t-50.5 -124t-77 -90.5t-109 -13q-27 10 -47 36.5t-35.5 60.5t-24.5 69t-15 61q-8 45 -17.5 142.5t-9.5 214z M62 1171q8 25 22.5 51t34.5 43.5t42.5 23t48.5 -8.5q14 -8 29.5 -25.5t30.5 -30.5t30 -18t29 10q10 18 12 29t5 16q7 20 23 26.5t31 0t24 -25.5t2 -52q-6 -31 -23.5 -57t-43 -41t-55.5 -14.5t-60 22.5q-19 15 -35 32t-37 31q-14 -24 -20.5 -47t-32.5 -42q-42 -8 -56.5 15.5 t-0.5 61.5zM132 568q1 -87 5 -144q2 -18 7.5 -62.5t14.5 -93.5t22.5 -92t32.5 -60.5t44 1t55 92.5q16 39 26.5 78t18.5 80q12 55 23.5 146t14.5 188.5t-7 185.5t-41 139q-12 16 -28.5 28.5t-36 16.5t-38 -1t-32.5 -26q-33 -45 -50.5 -125.5t-24.5 -172t-6 -178.5z" />
<glyph unicode="&#xf6;" horiz-adv-x="532" d="M39 581.5q0 116.5 13.5 236.5t48 209t97 132t160.5 8q45 -31 74 -86t44.5 -124.5t18.5 -150.5t-1.5 -163t-15.5 -159.5t-25 -143.5q-10 -47 -28.5 -114.5t-50.5 -124t-77 -90.5t-109 -13q-27 10 -47 36.5t-35.5 60.5t-24.5 69t-15 61q-8 45 -17.5 142.5t-9.5 214z M82 1093q6 23 24.5 36t46 15t51.5 -16q23 -26 17 -52.5t-26.5 -42.5t-49.5 -16t-50 28q-19 25 -13 48zM132 568q1 -87 5 -144q2 -18 7.5 -62.5t14.5 -93.5t22.5 -92t32.5 -60.5t44 1t55 92.5q16 39 26.5 78t18.5 80q12 55 23.5 146t14.5 188.5t-7 185.5t-41 139 q-12 16 -28.5 28.5t-36 16.5t-38 -1t-32.5 -26q-33 -45 -50.5 -125.5t-24.5 -172t-6 -178.5zM241 1093q6 23 25 36t46 15t52 -16q22 -26 16 -52.5t-26.5 -42.5t-49.5 -16t-50 28q-19 25 -13 48z" />
<glyph unicode="&#xf7;" d="M34 662.5q-1 23.5 13 46t45 34.5h473q35 0 51.5 -23.5t15.5 -51t-17.5 -52t-47.5 -24.5h-477q-27 6 -41 26.5t-15 44zM226.5 444q9.5 39 38 61.5t70.5 26t79 -25.5q35 -45 25.5 -91.5t-41 -73t-75.5 -26.5t-77 47q-29 43 -19.5 82zM226.5 909q9.5 39 38 61.5t70.5 26 t79 -25.5q35 -45 25.5 -91.5t-41 -73t-75.5 -26.5t-77 47q-29 43 -19.5 82z" />
<glyph unicode="&#xf8;" horiz-adv-x="532" d="M37 35q-10 24 4 56q32 107 59 198t51.5 174t47.5 161.5t47.5 159.5t50.5 170t56 192q6 28 28 39.5t43 9t35.5 -19t6.5 -43.5q-48 -164 -84 -291.5t-70.5 -247t-73 -247t-90.5 -291.5q-17 -39 -40 -49.5t-42 -2.5t-29 32zM39 581.5q0 116.5 13.5 236.5t48 209t97 132 t160.5 8q45 -31 74 -86t44.5 -124.5t18.5 -150.5t-1.5 -163t-15.5 -159.5t-25 -143.5q-10 -47 -28.5 -114.5t-50.5 -124t-77 -90.5t-109 -13q-27 10 -47 36.5t-35.5 60.5t-24.5 69t-15 61q-8 45 -17.5 142.5t-9.5 214zM132 568q1 -87 5 -144q2 -18 7.5 -62.5t14.5 -93.5 t22.5 -92t32.5 -60.5t44 1t55 92.5q16 39 26.5 78t18.5 80q12 55 23.5 146t14.5 188.5t-7 185.5t-41 139q-12 16 -28.5 28.5t-36 16.5t-38 -1t-32.5 -26q-33 -45 -50.5 -125.5t-24.5 -172t-6 -178.5z" />
<glyph unicode="&#xf9;" horiz-adv-x="518" d="M34 684q1 111 1 178q0 4 1 42t2 84t3 88t6 54q0 20 17.5 35t38 17t39 -10.5t20.5 -47.5l-8 -147q-10 -156 -8.5 -312.5t18.5 -312.5q2 -10 6 -45t12 -74.5t21.5 -73.5t36.5 -40q8 -4 26.5 13.5t38 44t33.5 55t18 49.5q12 86 13.5 193.5t0.5 220t-1 224t6 203.5v2 q0 27 14 40.5t31.5 14.5t33 -11.5t21.5 -37.5q4 -121 2 -255t-6 -269t-6 -269t4 -255q0 -41 -15.5 -63.5t-35 -22.5t-36.5 24.5t-20 79.5q-18 -37 -45.5 -63.5t-59.5 -34.5t-63.5 4t-60.5 55q-43 61 -63.5 168t-28.5 225.5t-7 229.5zM111.5 1343q7.5 20 23.5 28t34 2.5 t32 -30.5q18 -34 35 -74.5t32 -74.5q8 -21 1.5 -40.5t-21.5 -29.5t-33.5 -5.5t-30.5 30.5q-12 25 -21.5 43t-16 33.5t-14.5 31.5t-18 41t-2.5 45z" />
<glyph unicode="&#xfa;" horiz-adv-x="518" d="M34 684q1 111 1 178q0 4 1 42t2 84t3 88t6 54q0 20 17.5 35t38 17t39 -10.5t20.5 -47.5l-8 -147q-10 -156 -8.5 -312.5t18.5 -312.5q2 -10 6 -45t12 -74.5t21.5 -73.5t36.5 -40q8 -4 26.5 13.5t38 44t33.5 55t18 49.5q12 86 13.5 193.5t0.5 220t-1 224t6 203.5v2 q0 27 14 40.5t31.5 14.5t33 -11.5t21.5 -37.5q4 -121 2 -255t-6 -269t-6 -269t4 -255q0 -41 -15.5 -63.5t-35 -22.5t-36.5 24.5t-20 79.5q-18 -37 -45.5 -63.5t-59.5 -34.5t-63.5 4t-60.5 55q-43 61 -63.5 168t-28.5 225.5t-7 229.5zM47.5 1153.5q6.5 -19.5 21.5 -29.5 t33.5 -5.5t30.5 30.5q12 25 21.5 43t16 33.5t14.5 31.5t18 41t2.5 45t-23.5 28t-34 2.5t-32 -30.5q-18 -34 -35 -74.5t-32 -74.5q-8 -21 -1.5 -40.5z" />
<glyph unicode="&#xfb;" horiz-adv-x="518" d="M34 684q1 111 1 178q0 4 1 42t2 84t3 88t6 54q0 20 17.5 35t38 17t39 -10.5t20.5 -47.5l-8 -147q-10 -156 -8.5 -312.5t18.5 -312.5q2 -10 6 -45t12 -74.5t21.5 -73.5t36.5 -40q8 -4 26.5 13.5t38 44t33.5 55t18 49.5q12 86 13.5 193.5t0.5 220t-1 224t6 203.5v2 q0 27 14 40.5t31.5 14.5t33 -11.5t21.5 -37.5q4 -121 2 -255t-6 -269t-6 -269t4 -255q0 -41 -15.5 -63.5t-35 -22.5t-36.5 24.5t-20 79.5q-18 -37 -45.5 -63.5t-59.5 -34.5t-63.5 4t-60.5 55q-43 61 -63.5 168t-28.5 225.5t-7 229.5zM58.5 1095.5q-3.5 19.5 12.5 38.5 q22 25 57 59t62 59q9 9 23 14t28.5 5t29.5 -4.5t25 -15.5q31 -32 56 -61t51 -61q15 -20 12 -39.5t-17.5 -29.5t-35.5 -8.5t-40 24.5q-2 0 -19.5 23.5t-61.5 67.5q-26 -26 -47.5 -46t-46.5 -45q-18 -21 -38 -22t-33.5 10.5t-17 31z" />
<glyph unicode="&#xfc;" horiz-adv-x="518" d="M34 684q1 111 1 178q0 4 1 42t2 84t3 88t6 54q0 20 17.5 35t38 17t39 -10.5t20.5 -47.5l-8 -147q-10 -156 -8.5 -312.5t18.5 -312.5q2 -10 6 -45t12 -74.5t21.5 -73.5t36.5 -40q8 -4 26.5 13.5t38 44t33.5 55t18 49.5q12 86 13.5 193.5t0.5 220t-1 224t6 203.5v2 q0 27 14 40.5t31.5 14.5t33 -11.5t21.5 -37.5q4 -121 2 -255t-6 -269t-6 -269t4 -255q0 -41 -15.5 -63.5t-35 -22.5t-36.5 24.5t-20 79.5q-18 -37 -45.5 -63.5t-59.5 -34.5t-63.5 4t-60.5 55q-43 61 -63.5 168t-28.5 225.5t-7 229.5zM82 1093q6 23 24.5 36t46 15t51.5 -16 q23 -26 17 -52.5t-26.5 -42.5t-49.5 -16t-50 28q-19 25 -13 48zM241 1093q6 23 25 36t46 15t52 -16q22 -26 16 -52.5t-26.5 -42.5t-49.5 -16t-50 28q-19 25 -13 48z" />
<glyph unicode="&#xfd;" horiz-adv-x="483" d="M25 1124q4 25 19 38.5t32.5 15.5t34 -9.5t22.5 -35.5q8 -82 26.5 -164t47.5 -160q23 45 44 89t44.5 87t52.5 84t68 84q23 18 44 21.5t35.5 -6t19.5 -28t-5 -42.5q-53 -74 -108.5 -165t-96.5 -183q-6 -12 -14 -36t-17.5 -50.5t-15.5 -50t-6 -35.5q0 -98 1 -173t2 -135.5 t1 -113t-4 -105.5q-6 -23 -21.5 -36t-33 -13t-32.5 11.5t-22 37.5q0 145 1 293t-1 295q-20 41 -40.5 108.5t-37 138t-27.5 136t-13 102.5zM47.5 1153.5q6.5 -19.5 21.5 -29.5t33.5 -5.5t30.5 30.5q12 25 21.5 43t16 33.5t14.5 31.5t18 41t2.5 45t-23.5 28t-34 2.5t-32 -30.5 q-18 -34 -35 -74.5t-32 -74.5q-8 -21 -1.5 -40.5z" />
<glyph unicode="&#xfe;" horiz-adv-x="538" d="M51 -98v607t4 621q0 27 16.5 43.5t36 16.5t36 -15.5t16.5 -50.5v-228.5t-4 -223.5q37 18 76.5 22t78.5 -7t75 -41t63 -81q23 -47 36 -107.5t13 -123t-13.5 -123.5t-44 -108.5t-81 -76t-119.5 -28.5q-27 0 -46.5 5t-37.5 15v-116q0 -39 -16.5 -57.5t-36 -17.5t-36 19.5 t-16.5 55.5zM156 135q14 -23 59 -31q51 -10 85 8.5t54.5 54.5t26.5 85t4 97t-11 93t-24 72q-16 37 -41.5 54.5t-53.5 19.5t-54.5 -9.5t-44.5 -31.5v-412z" />
<glyph unicode="&#xff;" horiz-adv-x="483" d="M25 1124q4 25 19 38.5t32.5 15.5t34 -9.5t22.5 -35.5q8 -82 26.5 -164t47.5 -160q23 45 44 89t44.5 87t52.5 84t68 84q23 18 44 21.5t35.5 -6t19.5 -28t-5 -42.5q-53 -74 -108.5 -165t-96.5 -183q-6 -12 -14 -36t-17.5 -50.5t-15.5 -50t-6 -35.5q0 -98 1 -173t2 -135.5 t1 -113t-4 -105.5q-6 -23 -21.5 -36t-33 -13t-32.5 11.5t-22 37.5q0 145 1 293t-1 295q-20 41 -40.5 108.5t-37 138t-27.5 136t-13 102.5zM66 1093q6 23 24.5 36t46 15t51.5 -16q23 -26 17 -52.5t-26.5 -42.5t-49.5 -16t-50 28q-19 25 -13 48zM225 1093q6 23 25 36t46 15 t52 -16q22 -26 16 -52.5t-26.5 -42.5t-49.5 -16t-50 28q-19 25 -13 48z" />
<glyph unicode="&#x152;" horiz-adv-x="1185" d="M32 886q3 124 20.5 241.5t52 221t92 173t141.5 96.5t201 -10q18 -12 34.5 -26.5t30.5 -29.5q14 31 54 49.5t91.5 26.5t110 7t109.5 -8t92 -19.5t57 -24.5q25 -25 27 -49.5t-11.5 -41.5t-39 -26.5t-58.5 -3.5q-74 4 -140.5 11.5t-133.5 -5.5v-320.5t2 -326.5q49 -2 94 7.5 t92 13.5q20 4 43 -3.5t36 -22.5t14 -38.5t-17 -50.5q-43 -41 -116.5 -54.5t-145.5 -8.5q2 -135 2 -258t-2 -256q78 2 159 14t150 41q37 8 59.5 -8.5t29.5 -42t-3 -54t-43 -45.5q-92 -35 -203 -48t-213 -9q-33 6 -61.5 27.5t-28.5 62.5t1 81t1 77q-25 -55 -57.5 -105.5 t-74.5 -86.5t-95 -50t-117 4q-43 12 -75.5 49t-56 83t-39 94.5t-23.5 82.5q-10 47 -21.5 135.5t-17.5 199t-3 234.5zM180 863q-2 -81 1 -152.5t7 -122.5q2 -27 10.5 -86.5t23 -126t37 -126t52 -84t68.5 1.5t88 128q23 51 40 106.5t32 108.5q12 51 24 125t21.5 159t12.5 175 t-3 173t-23.5 153.5t-50.5 115.5q-16 25 -42.5 42t-56.5 23.5t-60.5 -2t-53.5 -34.5q-35 -41 -58.5 -106.5t-37.5 -142.5t-21.5 -162t-9.5 -166z" />
<glyph unicode="&#x153;" horiz-adv-x="755" d="M18.5 573.5q2.5 122.5 16.5 233.5q10 123 32.5 215t73.5 139q66 47 115 24.5t82 -78.5t48 -127t15 -120q0 -25 -14 -42t-30.5 -22t-33 4t-18.5 36q-6 25 -12 68.5t-18.5 84.5t-30 66.5t-43.5 11.5q-18 -18 -31 -68q-35 -166 -40 -303t-1 -272q0 -10 3 -55t10.5 -96.5 t18.5 -95.5t29 -54q27 -16 44.5 8.5t29.5 65.5t18.5 85t12.5 68q2 27 17.5 36t32.5 5t30.5 -21.5t13.5 -43.5q-4 -33 -12 -76t-23.5 -86t-36 -82t-48 -61.5t-62.5 -23.5t-78 30q-41 33 -65.5 117.5t-36 195.5t-9 233.5zM355.5 1117q13.5 28 45 42.5t74.5 17.5t85 -2.5 t77 -14.5t49 -21q29 -41 6.5 -68t-61.5 -18q-47 2 -89 7t-85 -5q0 -55 4 -112.5t6 -116t1 -118t-11 -116.5q31 0 61.5 6t59.5 6q29 10 48 -14.5t5 -65.5q-29 -29 -78 -39t-96 -6q2 -98 2 -185t-2 -185q49 2 101 11t99 30l-2 -5q23 2 37.5 -9t18.5 -27.5t-2.5 -35 t-24.5 -30.5q-59 -27 -130.5 -37t-137.5 -6q-23 4 -37 21.5t-21 39.5q2 129 3 249t1 239t-1 240.5t-1 254.5q-18 45 -4.5 73z" />
<glyph unicode="&#x178;" horiz-adv-x="716" d="M2 1563q6 33 27.5 52t46 20t47 -14t33.5 -50q10 -115 34.5 -228.5t67.5 -224.5q33 66 61.5 126.5t62.5 119.5t74 117.5t95 117.5q31 27 59.5 31t49 -8t27.5 -37.5t-5 -58.5q-76 -106 -151.5 -234.5t-135.5 -251.5q-8 -16 -21.5 -49t-25.5 -69.5t-21.5 -70.5t-9.5 -48 q0 -139 2.5 -243.5t4.5 -189.5t1 -158t-8 -146q-8 -33 -28.5 -49.5t-44 -17.5t-44 15.5t-30.5 51.5q0 205 1 408.5t-1 412.5q-31 57 -59.5 150t-51 191.5t-39 190t-18.5 144.5zM93.5 1820q9.5 39 38 61.5t70.5 26t79 -27.5q35 -45 25.5 -90t-41 -72t-75.5 -27t-77 47 q-29 43 -19.5 82zM337.5 1820q9.5 39 38 61.5t70.5 26t79 -27.5q35 -45 25.5 -90t-41 -72t-75.5 -27t-77 47q-29 43 -19.5 82z" />
<glyph unicode="&#x2c6;" horiz-adv-x="602" d="M15 1319.5q-5 31.5 20 62.5q35 41 91 95.5t99 95.5q14 14 36 22.5t45.5 8.5t47 -7.5t39.5 -25.5q49 -51 89 -98.5t81 -98.5q25 -33 20 -64.5t-28 -48t-56.5 -13.5t-64.5 40q-2 0 -30.5 38t-98.5 110q-41 -43 -75.5 -75t-73.5 -73q-29 -35 -61 -36t-53.5 17.5t-26.5 50z " />
<glyph unicode="&#x2dc;" horiz-adv-x="630" d="M35 1395q12 39 35.5 80t54.5 68.5t66.5 35.5t76.5 -14q23 -12 47.5 -39t48 -47.5t47 -28.5t46.5 16q16 27 19 44.5t7 25.5q12 31 37 41t48.5 0t38 -40t3.5 -81q-10 -49 -37.5 -90t-67.5 -64.5t-88 -22.5t-95 36q-29 23 -54.5 49.5t-58.5 48.5q-23 -37 -33 -73.5 t-51 -65.5q-66 -12 -89.5 24.5t-0.5 96.5z" />
<glyph unicode="&#x2000;" horiz-adv-x="1055" />
<glyph unicode="&#x2001;" horiz-adv-x="2111" />
<glyph unicode="&#x2002;" horiz-adv-x="1055" />
<glyph unicode="&#x2003;" horiz-adv-x="2111" />
<glyph unicode="&#x2004;" horiz-adv-x="703" />
<glyph unicode="&#x2005;" horiz-adv-x="527" />
<glyph unicode="&#x2006;" horiz-adv-x="351" />
<glyph unicode="&#x2007;" horiz-adv-x="351" />
<glyph unicode="&#x2008;" horiz-adv-x="263" />
<glyph unicode="&#x2009;" horiz-adv-x="422" />
<glyph unicode="&#x200a;" horiz-adv-x="117" />
<glyph unicode="&#x2010;" d="M34 662.5q-1 23.5 13 46t45 34.5h473q35 0 51.5 -23.5t15.5 -51t-17.5 -52t-47.5 -24.5h-477q-27 6 -41 26.5t-15 44z" />
<glyph unicode="&#x2011;" d="M34 662.5q-1 23.5 13 46t45 34.5h473q35 0 51.5 -23.5t15.5 -51t-17.5 -52t-47.5 -24.5h-477q-27 6 -41 26.5t-15 44z" />
<glyph unicode="&#x2012;" d="M34 662.5q-1 23.5 13 46t45 34.5h473q35 0 51.5 -23.5t15.5 -51t-17.5 -52t-47.5 -24.5h-477q-27 6 -41 26.5t-15 44z" />
<glyph unicode="&#x2013;" horiz-adv-x="890" d="M34 662.5q-1 23.5 13 46t45 34.5h696q35 0 50.5 -23.5t15.5 -51t-16.5 -52t-46.5 -24.5h-701q-27 6 -41 26.5t-15 44z" />
<glyph unicode="&#x2014;" horiz-adv-x="1105" d="M34 662.5q-1 23.5 13 46t45 34.5h918q35 0 51 -23.5t16 -51t-16.5 -52t-46.5 -24.5h-924q-27 6 -41 26.5t-15 44z" />
<glyph unicode="&#x2018;" horiz-adv-x="215" d="M25 1558.5v92.5v63q8 39 33.5 55.5t52 13.5t47 -25.5t20.5 -61.5v-4q4 -63 4 -132t-10 -133q-10 -29 -28.5 -44t-39 -16t-40 12.5t-31.5 41.5q-4 10 -6 50t-2 87.5z" />
<glyph unicode="&#x2019;" horiz-adv-x="219" d="M25 1558.5v92.5v63q8 39 33.5 55.5t52 13.5t47 -25.5t20.5 -61.5v-4q4 -63 4 -132t-10 -133q-10 -29 -28.5 -44t-39 -16t-40 12.5t-31.5 41.5q-4 10 -6 50t-2 87.5z" />
<glyph unicode="&#x201a;" horiz-adv-x="276" d="M27.5 143q9.5 39 38 61.5t70.5 25.5t79 -25v-4q33 -37 47 -93.5t8 -113.5t-33.5 -106.5t-76.5 -73.5q-39 -14 -66.5 -1t-38 38.5t0 55.5t44.5 48q12 6 14.5 23.5t2.5 37.5q-37 6 -70 45q-29 43 -19.5 82z" />
<glyph unicode="&#x201c;" horiz-adv-x="393" d="M25 1558.5v92.5v63q8 39 33.5 55.5t52 13.5t47 -25.5t20.5 -61.5v-4q4 -63 4 -132t-10 -133q-10 -29 -28.5 -44t-39 -16t-40 12.5t-31.5 41.5q-4 10 -6 50t-2 87.5zM213 1558.5v92.5v63q10 39 35.5 55.5t51.5 13.5t46.5 -25.5t20.5 -61.5v-4q4 -63 4 -132t-11 -133 q-23 -57 -68.5 -60t-72.5 54q-4 10 -5 50t-1 87.5z" />
<glyph unicode="&#x201d;" horiz-adv-x="403" d="M25 1558.5v92.5v63q8 39 33.5 55.5t52 13.5t47 -25.5t20.5 -61.5v-4q4 -63 4 -132t-10 -133q-10 -29 -28.5 -44t-39 -16t-40 12.5t-31.5 41.5q-4 10 -6 50t-2 87.5zM213 1558.5v92.5v63q10 39 35.5 55.5t51.5 13.5t46.5 -25.5t20.5 -61.5v-4q4 -63 4 -132t-11 -133 q-23 -57 -68.5 -60t-72.5 54q-4 10 -5 50t-1 87.5z" />
<glyph unicode="&#x201e;" horiz-adv-x="569" d="M27.5 143q9.5 39 38 61.5t70.5 25.5t79 -25v-4q33 -37 47 -93.5t8 -113.5t-33.5 -106.5t-76.5 -73.5q-39 -14 -66.5 -1t-38 38.5t0 55.5t44.5 48q12 6 14.5 23.5t2.5 37.5q-37 6 -70 45q-29 43 -19.5 82zM27.5 143q9.5 39 38 61.5t70.5 25.5t79 -25v-4q33 -37 47 -93.5 t8 -113.5t-33.5 -106.5t-76.5 -73.5q-39 -14 -66.5 -1t-38 38.5t0 55.5t44.5 48q12 6 14.5 23.5t2.5 37.5q-37 6 -70 45q-29 43 -19.5 82zM287.5 143q9.5 39 38 61.5t70.5 25.5t79 -25v-4q33 -37 47.5 -93.5t8 -113.5t-34 -106.5t-76.5 -73.5q-39 -14 -66.5 -1t-38 38.5 t-1 55.5t45.5 48q10 6 13.5 23.5t3.5 37.5q-37 6 -70 45q-29 43 -19.5 82z" />
<glyph unicode="&#x2022;" horiz-adv-x="333" d="M23.5 627.5q11.5 52.5 50.5 83t94 34t104 -35.5q47 -61 35 -122t-54 -97.5t-99.5 -35.5t-102.5 64q-39 57 -27.5 109.5z" />
<glyph unicode="&#x2026;" horiz-adv-x="761" d="M27.5 133q9.5 39 38 61.5t70.5 26t79 -25.5q35 -45 25.5 -91.5t-41 -73t-75.5 -26.5t-77 47q-29 43 -19.5 82zM271.5 133q9.5 39 38 61.5t70.5 26t79 -25.5q35 -45 25.5 -91.5t-41 -73t-75.5 -26.5t-77 47q-29 43 -19.5 82zM514.5 133q9.5 39 38 61.5t70.5 26t79 -25.5 q35 -45 25.5 -91.5t-41 -73t-75.5 -26.5t-77 47q-29 43 -19.5 82z" />
<glyph unicode="&#x202f;" horiz-adv-x="422" />
<glyph unicode="&#x2039;" horiz-adv-x="782" d="M63 745q80 66 150 118t136.5 101.5t134 100t145.5 111.5q31 25 62.5 22.5t50 -22t20.5 -49t-25 -60.5q-68 -55 -132 -104.5t-126.5 -96.5t-127 -94t-134.5 -98q123 -92 251 -187.5t249 -191.5q29 -23 32 -53.5t-12.5 -53t-44 -30.5t-63.5 12h-2q-141 104 -276.5 204.5 t-284.5 203.5q-94 92 -3 167z" />
<glyph unicode="&#x203a;" horiz-adv-x="774" d="M12 1127.5q2 29.5 20.5 49t50 22t62.5 -22.5q78 -61 145.5 -111.5t134.5 -100t136.5 -101.5t149.5 -118q92 -76 -2 -167q-150 -102 -285 -203t-274 -205h-5q-35 -20 -63.5 -12t-43.5 30.5t-12 53t31 53.5q121 96 249 191.5t251 187.5q-68 51 -132.5 98t-128 94t-128 96.5 t-131.5 104.5q-27 31 -25 60.5z" />
<glyph unicode="&#x205f;" horiz-adv-x="527" />
<glyph unicode="&#x20ac;" d="M-11 686.5q-1 24.5 13 47t45 32.5h475q35 0 50.5 -23.5t14.5 -51t-17.5 -52.5t-47.5 -27h-475q-27 6 -42 28t-16 46.5zM-11 885.5q-1 23.5 13 46t45 33.5h475q35 0 50.5 -23.5t14.5 -51.5t-17.5 -52.5t-47.5 -26.5h-475q-27 8 -42 29.5t-16 45zM21.5 784 q3.5 168 23.5 320q10 82 22.5 156.5t32 138t46 112t67.5 78.5q70 43 127 42t102 -31.5t79 -83t55.5 -113t31.5 -120.5t10 -105q0 -37 -21.5 -60.5t-48 -30t-50 7t-29.5 50.5q-6 33 -16.5 93t-28.5 115.5t-46 90.5t-71 14q-29 -16 -49 -92q-29 -111 -43 -214t-19.5 -200.5 t-4 -189.5t5.5 -184q0 -14 5 -76t15 -132.5t28.5 -132t45.5 -73.5q41 -20 68.5 13.5t46 89t28.5 115.5t19 95q4 37 28.5 50.5t51 7t48 -30t21.5 -58.5q-6 -45 -20.5 -105t-38 -119.5t-55 -112t-74.5 -83t-97.5 -32.5t-119.5 41q-66 47 -105 162.5t-56.5 267t-14 319.5z" />
<glyph unicode="&#x25fc;" horiz-adv-x="1187" d="M0 0v1188h1188v-1188h-1188z" />
</font>
</defs>
</svg>
